<svg width="50" height="50" viewBox="0 0 50 50" fill="none" xmlns="http://www.w3.org/2000/svg">
<path d="M24.9993 4.99995C25.4595 4.99995 25.8327 4.62683 25.8327 4.16662V0.833325C25.8327 0.373121 25.4595 0 24.9993 0C24.5391 0 24.166 0.373121 24.166 0.833325V4.16662C24.166 4.62683 24.539 4.99995 24.9993 4.99995Z" fill="#0B59DB"/>
<path d="M14.6949 3.8175L16.3616 6.7033C16.5891 7.1034 17.0978 7.2433 17.4979 7.0158C17.898 6.7883 18.0379 6.27956 17.8104 5.87946C17.8086 5.87623 17.8068 5.8731 17.8049 5.86987L16.1382 2.98407C15.9107 2.58397 15.402 2.44407 15.0019 2.67157C14.6018 2.89907 14.4619 3.40781 14.6894 3.80791C14.6912 3.81114 14.693 3.81437 14.6949 3.8175Z" fill="#0B59DB"/>
<path d="M7.97527 11.1324C7.97839 11.1343 7.98162 11.1361 7.98485 11.1379L10.8707 12.8046C11.2677 13.0373 11.7782 12.9042 12.011 12.5071C12.2437 12.11 12.1105 11.5995 11.7135 11.3668C11.7103 11.3649 11.7071 11.3631 11.7039 11.3613L8.81807 9.69461C8.42099 9.46191 7.91047 9.59503 7.67777 9.99211C7.44506 10.3891 7.57819 10.8997 7.97527 11.1324Z" fill="#0B59DB"/>
<path d="M9.99995 19.9993C9.99995 19.5391 9.62683 19.166 9.16662 19.166H5.83332C5.37312 19.166 5 19.5391 5 19.9993C5 20.4595 5.37312 20.8327 5.83332 20.8327H9.16662C9.62683 20.8327 9.99995 20.4595 9.99995 19.9993Z" fill="#0B59DB"/>
<path d="M10.8804 27.1891C10.8772 27.1909 10.8739 27.1928 10.8707 27.1947L7.98491 28.8613C7.58481 29.0887 7.44481 29.5975 7.67221 29.9976C7.8996 30.3977 8.40835 30.5377 8.80845 30.3103C8.81167 30.3084 8.8149 30.3065 8.81813 30.3046L11.7039 28.638C12.104 28.4106 12.244 27.9019 12.0166 27.5018C11.7892 27.1017 11.2805 26.9617 10.8804 27.1891Z" fill="#0B59DB"/>
<path d="M42.0243 28.867C42.0211 28.8651 42.0178 28.8632 42.0146 28.8613L39.1288 27.1947C38.7318 26.9619 38.2212 27.095 37.9884 27.492C37.7556 27.889 37.8887 28.3996 38.2857 28.6324C38.2889 28.6343 38.2921 28.6361 38.2954 28.638L41.1812 30.3047C41.5781 30.5375 42.0888 30.4043 42.3216 30.0074C42.5544 29.6103 42.4213 29.0998 42.0243 28.867Z" fill="#0B59DB"/>
<path d="M44.1666 19.166H40.8333C40.3731 19.166 40 19.5391 40 19.9993C40 20.4595 40.3731 20.8327 40.8333 20.8327H44.1666C44.6268 20.8327 44.9999 20.4595 44.9999 19.9993C44.9999 19.5391 44.6268 19.166 44.1666 19.166Z" fill="#0B59DB"/>
<path d="M38.7134 12.9163C38.8597 12.9163 39.0034 12.8778 39.1301 12.8046L42.0159 11.138C42.416 10.9105 42.5559 10.4017 42.3284 10.0016C42.1009 9.60155 41.5921 9.46165 41.192 9.68915C41.1888 9.69092 41.1857 9.6928 41.1825 9.69467L38.2967 11.3613C37.8981 11.5914 37.7616 12.1011 37.9917 12.4996C38.1406 12.7575 38.4157 12.9163 38.7134 12.9163Z" fill="#0B59DB"/>
<path d="M32.4982 7.00863C32.4985 7.00884 32.4988 7.00905 32.4991 7.00915C32.8978 7.23904 33.4075 7.10227 33.6373 6.70353L33.6375 6.70332L35.3041 3.81752C35.5369 3.42054 35.4038 2.90992 35.0068 2.67711C34.6098 2.4443 34.0992 2.57743 33.8664 2.9744C33.8645 2.97763 33.8627 2.98086 33.8608 2.98409L32.1941 5.86989C31.9637 6.26833 32.0999 6.77811 32.4982 7.00863Z" fill="#0B59DB"/>
<path d="M26.6663 33.3325C27.1265 33.3325 27.4997 32.9594 27.4997 32.4992V23.3326H29.1663C31.0072 23.3326 32.4996 21.8402 32.4996 19.9993C32.4996 18.1584 31.0072 16.666 29.1663 16.666C27.3254 16.666 25.833 18.1584 25.833 19.9993V21.666H24.1664V19.9993C24.1664 18.1584 22.674 16.666 20.8331 16.666C18.9921 16.666 17.4998 18.1584 17.4998 19.9993C17.4998 21.8402 18.9921 23.3326 20.8331 23.3326H22.4997V32.4992C22.4997 32.9594 22.8728 33.3325 23.333 33.3325C23.7932 33.3325 24.1664 32.9594 24.1664 32.4992V23.3326H25.833V32.4992C25.833 32.9594 26.206 33.3325 26.6663 33.3325ZM27.4997 19.9993C27.4997 19.0788 28.2458 18.3327 29.1663 18.3327C30.0868 18.3327 30.8329 19.0788 30.8329 19.9993C30.8329 20.9198 30.0868 21.666 29.1663 21.666H27.4997V19.9993ZM22.4997 21.666H20.8331C19.9125 21.666 19.1664 20.9198 19.1664 19.9993C19.1664 19.0788 19.9125 18.3327 20.8331 18.3327C21.7536 18.3327 22.4997 19.0788 22.4997 19.9993V21.666Z" fill="#0B59DB"/>
<path d="M25.6469 6.68166C18.2917 6.32833 12.0426 12.0044 11.6892 19.3596C11.4868 23.5713 13.2886 27.6304 16.5478 30.3056C17.1352 30.7657 17.4847 31.4655 17.4995 32.2114V34.1655C17.5039 35.2211 18.1708 36.1603 19.1661 36.5122V37.4988C19.1683 38.1158 19.4 38.71 19.8161 39.1655C18.9495 40.1076 18.9495 41.5567 19.8161 42.4988C18.8897 43.5144 18.962 45.0888 19.9776 46.0152C20.4389 46.436 21.0416 46.6681 21.6661 46.6654C22.1146 46.6772 22.4879 46.323 22.4995 45.8745C22.5041 45.6995 22.452 45.5276 22.3511 45.3846C22.3247 45.3336 22.2935 45.2853 22.2578 45.2404C22.1892 45.1777 22.111 45.1265 22.0261 45.0888C22.0019 45.0763 21.9778 45.0663 21.9528 45.0563C21.8684 45.0255 21.78 45.0078 21.6903 45.0038C21.6819 45.0038 21.6744 44.9988 21.6661 44.9988C21.2059 44.9988 20.8328 44.6256 20.8328 44.1654C20.8328 43.7052 21.2059 43.3321 21.6661 43.3321H24.9994C25.4596 43.3321 25.8327 42.959 25.8327 42.4988C25.8327 42.0386 25.4596 41.6655 24.9994 41.6655H21.6661C21.2059 41.6655 20.8328 41.2923 20.8328 40.8321C20.8328 40.3719 21.2059 39.9988 21.6661 39.9988H24.9994C25.4596 39.9988 25.8327 39.6257 25.8327 39.1655C25.8327 38.7053 25.4596 38.3322 24.9994 38.3322H21.6661C21.2059 38.3322 20.8328 37.959 20.8328 37.4988V36.6655H24.9994C25.4596 36.6655 25.8327 36.2924 25.8327 35.8322C25.8327 35.372 25.4596 34.9989 24.9994 34.9989H19.9995C19.5393 34.9989 19.1661 34.6257 19.1661 34.1655V32.2114C19.1525 30.9654 18.5786 29.7916 17.6036 29.0156C12.6258 24.9246 11.9069 17.5728 15.9979 12.5949C18.3381 9.74746 21.8862 8.17331 25.5677 8.34914C31.7246 8.71539 36.5609 13.7613 36.6659 19.9282C36.6958 23.4752 35.101 26.8409 32.3368 29.0639C31.3691 29.861 30.8158 31.0544 30.8327 32.3081V34.1655C30.8327 34.6257 30.4596 34.9989 29.9993 34.9989H27.4994C27.0392 34.9989 26.666 35.372 26.666 35.8322C26.666 36.2924 27.0392 36.6655 27.4994 36.6655H29.166V37.4988C29.166 37.959 28.7929 38.3322 28.3327 38.3322H27.4994C27.0392 38.3322 26.666 38.7053 26.666 39.1655C26.666 39.6257 27.0392 39.9988 27.4994 39.9988H28.3327C28.7929 39.9988 29.166 40.3719 29.166 40.8321C29.166 41.2923 28.7929 41.6655 28.3327 41.6655H27.4994C27.0392 41.6655 26.666 42.0386 26.666 42.4988C26.666 42.959 27.0392 43.3321 27.4994 43.3321H28.3327C28.7929 43.3321 29.166 43.7052 29.166 44.1654C29.166 44.6256 28.7929 44.9988 28.3327 44.9988H24.1661C23.7059 44.9988 23.3328 45.3719 23.3328 45.8321C23.3328 46.2923 23.7059 46.6654 24.1661 46.6654H27.3569C26.8968 47.9672 25.4685 48.6494 24.1667 48.1894C23.7682 48.0485 23.4119 47.8088 23.1311 47.4929C22.8251 47.1492 22.2982 47.1185 21.9544 47.4246C21.6107 47.7306 21.5801 48.2575 21.8861 48.6012C23.4101 50.3186 26.0378 50.4754 27.7552 48.9514C28.4646 48.322 28.9374 47.4689 29.0952 46.5337C30.4003 46.1258 31.1276 44.7372 30.7198 43.4321C30.6114 43.0853 30.428 42.7667 30.1827 42.4988C31.0493 41.5567 31.0493 40.1076 30.1827 39.1655C30.5988 38.71 30.8305 38.1158 30.8327 37.4988V36.5122C31.828 36.1603 32.4949 35.2211 32.4993 34.1655V32.3081C32.4882 31.5594 32.8125 30.8449 33.3835 30.3606C36.5443 27.8195 38.3678 23.9712 38.3326 19.9157C38.2122 12.867 32.6841 7.10009 25.6469 6.68166Z" fill="#0B1422"/>
</svg>
