<svg width="50" height="50" viewBox="0 0 50 50" fill="none" xmlns="http://www.w3.org/2000/svg">
<path d="M24.9999 46.875C28.7678 46.875 32.4719 45.9018 35.7531 44.0495C39.0344 42.1973 41.7816 39.5289 43.7285 36.303C45.6754 33.077 46.756 29.4028 46.8656 25.6365C46.9752 21.8701 46.1101 18.1393 44.3541 14.8056C44.2561 14.6242 44.0904 14.4889 43.893 14.4291C43.6957 14.3694 43.4827 14.3902 43.3005 14.4868C43.1184 14.5835 42.9819 14.7482 42.9207 14.9451C42.8595 15.1421 42.8787 15.3552 42.974 15.538C44.512 18.4547 45.3147 21.7027 45.3124 25C44.1991 51.9431 5.80046 51.9433 4.68738 24.9998C4.49924 9.93608 21.2501 -0.160668 34.462 7.02618C34.6451 7.12329 34.8592 7.1437 35.0573 7.08292C35.2554 7.02214 35.4213 6.88515 35.5184 6.70209C35.6155 6.51903 35.6359 6.30489 35.5751 6.10678C35.5143 5.90867 35.3773 5.74282 35.1943 5.64571C32.052 3.98812 28.5526 3.12282 24.9999 3.125C-4.01608 4.32388 -4.01574 45.6767 24.9999 46.875Z" fill="#0B1422"/>
<path d="M24.9996 18.7501C25.6761 18.7497 26.3479 18.862 26.9875 19.0824C27.1833 19.1498 27.398 19.1367 27.5842 19.0459C27.7704 18.9552 27.9129 18.7941 27.9804 18.5983C28.3237 17.2162 25.8904 17.2714 24.9997 17.1875C14.6366 17.6158 14.6371 32.3848 24.9997 32.8126C27.071 32.8103 29.0568 31.9865 30.5214 30.5218C31.986 29.0572 32.8098 27.0714 32.8121 25.0001C32.7323 24.0932 32.7852 21.6853 31.4092 22.0273C31.3121 22.0606 31.2226 22.1128 31.1458 22.1807C31.0689 22.2487 31.0062 22.3312 30.9613 22.4234C30.9163 22.5156 30.8899 22.6158 30.8837 22.7182C30.8775 22.8207 30.8915 22.9233 30.925 23.0203C31.1424 23.6576 31.2521 24.3267 31.2496 25.0001C30.9363 33.2788 19.0628 33.2791 18.7496 25C18.7515 23.343 19.4106 21.7544 20.5823 20.5828C21.754 19.4111 23.3426 18.752 24.9996 18.7501Z" fill="#0B1422"/>
<path d="M32.4806 13.0741C32.5303 12.9844 32.5619 12.8858 32.5736 12.7838C32.5852 12.6819 32.5766 12.5787 32.5484 12.48C32.5201 12.3814 32.4727 12.2893 32.4088 12.209C32.345 12.1287 32.2659 12.0618 32.1762 12.0121C29.9797 10.7963 27.5108 10.1578 25.0003 10.1562C5.31094 10.97 5.3112 39.0304 25.0004 39.8438C27.5826 39.8453 30.1204 39.1728 32.363 37.8928C34.6055 36.6128 36.4751 34.7696 37.787 32.5455C39.0988 30.3214 39.8074 27.7935 39.8427 25.2116C39.878 22.6297 39.2388 20.0833 37.9882 17.8241C37.9387 17.734 37.8719 17.6545 37.7916 17.5903C37.7113 17.526 37.6191 17.4782 37.5203 17.4497C37.4214 17.4212 37.318 17.4124 37.2158 17.424C37.1136 17.4355 37.0147 17.4672 36.9247 17.517C36.8348 17.5669 36.7556 17.634 36.6916 17.7146C36.6277 17.7952 36.5803 17.8876 36.5521 17.9865C36.524 18.0854 36.5157 18.1889 36.5276 18.2911C36.5396 18.3932 36.5716 18.492 36.6218 18.5817C41.5738 27.1699 34.9215 38.4532 25.0001 38.2811C21.479 38.2772 18.1031 36.8767 15.6133 34.3868C13.1235 31.897 11.723 28.5212 11.7191 25C11.5489 15.0789 22.8293 8.42584 31.4187 13.3787C31.5084 13.4287 31.607 13.4604 31.709 13.4721C31.8109 13.4838 31.9142 13.4752 32.0129 13.4469C32.1115 13.4186 32.2036 13.3711 32.2839 13.3072C32.3642 13.2432 32.431 13.164 32.4806 13.0741Z" fill="#0B1422"/>
<path d="M34.0034 10.8581L34.2904 14.6052L24.448 24.4475C24.3065 24.5951 24.2284 24.7922 24.2305 24.9966C24.2326 25.201 24.3148 25.3965 24.4593 25.541C24.6039 25.6856 24.7994 25.7677 25.0038 25.7698C25.2082 25.7719 25.4053 25.6938 25.5528 25.5522L35.3951 15.7099L39.1422 15.9968C39.2545 16.0054 39.3673 15.9896 39.473 15.9505C39.5786 15.9114 39.6745 15.8499 39.7541 15.7703L45.4403 10.0845C45.5438 9.97792 45.615 9.84427 45.6456 9.69897C45.6763 9.55366 45.6652 9.40264 45.6137 9.26336C45.5621 9.12409 45.4722 9.00226 45.3543 8.91197C45.2364 8.82168 45.0953 8.76661 44.9474 8.75314L41.5104 8.48992L41.2472 5.05284C41.2336 4.90498 41.1785 4.76397 41.0882 4.64611C40.9979 4.52825 40.8761 4.43835 40.7368 4.38681C40.5976 4.33527 40.4466 4.32419 40.3013 4.35484C40.156 4.3855 40.0224 4.45664 39.9158 4.56005L34.2301 10.2462C34.1503 10.3257 34.0888 10.4216 34.0497 10.5273C34.0106 10.6329 33.9948 10.7457 34.0034 10.8581ZM39.8189 6.86635C40.1316 10.5046 39.5163 9.86418 43.134 10.1813L38.9034 14.4114L35.8246 14.1757L35.5888 11.0968L39.8189 6.86635Z" fill="#0B59DB"/>
</svg>
