<svg width="50" height="50" viewBox="0 0 50 50" fill="none" xmlns="http://www.w3.org/2000/svg">
<path d="M12.8827 40.3681C12.6171 40.3681 12.3671 40.2353 12.2265 39.9931L5.63272 28.5712C5.42178 28.2118 5.54678 27.7431 5.91397 27.5399C6.27335 27.329 6.7421 27.454 6.94522 27.8212L13.539 39.2431C13.7499 39.6024 13.6249 40.0712 13.2577 40.2743C13.1405 40.3368 13.0077 40.3681 12.8827 40.3681Z" fill="#0B1422"/>
<path d="M31.5937 7.95313H18.4062C17.9844 7.95313 17.6484 7.61719 17.6484 7.19531C17.6484 6.77344 17.9844 6.4375 18.4062 6.4375H31.5937C32.0156 6.4375 32.3516 6.77344 32.3516 7.19531C32.3516 7.60938 32.0156 7.95313 31.5937 7.95313Z" fill="#0B1422"/>
<path d="M37.1171 40.3586C36.9921 40.3586 36.8593 40.3273 36.7421 40.257C36.3828 40.0461 36.2578 39.5851 36.4687 39.2258L43.0624 27.8117C43.2734 27.4523 43.7343 27.3273 44.0937 27.5383C44.4531 27.7492 44.5781 28.2101 44.3671 28.5695L37.7734 39.9836C37.6328 40.2258 37.3828 40.3586 37.1171 40.3586Z" fill="#0B1422"/>
<path d="M43.7108 22.5712C43.4452 22.5712 43.1952 22.4384 43.0546 22.1962L36.4608 10.7665C36.2499 10.4071 36.3749 9.93838 36.7421 9.73526C37.1015 9.52432 37.5702 9.64932 37.7733 10.0165L44.3671 21.4462C44.578 21.8056 44.453 22.2743 44.0858 22.4774C43.9765 22.5399 43.8437 22.5712 43.7108 22.5712Z" fill="#0B1422"/>
<path d="M6.28088 22.5699C6.15588 22.5699 6.02307 22.5387 5.90588 22.4684C5.54651 22.2574 5.42151 21.7965 5.62463 21.4371L12.2184 10.0074C12.4293 9.64807 12.8903 9.52307 13.2496 9.7262C13.609 9.93713 13.734 10.3981 13.5309 10.7574L6.94495 22.1871C6.80432 22.4293 6.54651 22.5699 6.28088 22.5699Z" fill="#0B1422"/>
<path d="M31.6016 43.5625H18.4062C17.9844 43.5625 17.6484 43.2266 17.6484 42.8047C17.6484 42.3828 17.9844 42.0469 18.4062 42.0469H31.6016C32.0234 42.0469 32.3594 42.3828 32.3594 42.8047C32.3594 43.2266 32.0156 43.5625 31.6016 43.5625Z" fill="#0B1422"/>
<path d="M45.5547 29.4453C43.1094 29.4453 41.1172 27.4531 41.1172 25C41.1172 22.5547 43.1094 20.5625 45.5547 20.5625C48 20.5625 50 22.5547 50 25C50 27.4453 48.0078 29.4453 45.5547 29.4453ZM45.5547 22.0703C43.9375 22.0703 42.625 23.3828 42.625 25C42.625 26.6172 43.9375 27.9297 45.5547 27.9297C47.1719 27.9297 48.4844 26.6172 48.4844 25C48.4844 23.3828 47.1719 22.0703 45.5547 22.0703Z" fill="#0B1422"/>
<path d="M4.44531 29.4453C1.99219 29.4453 0 27.4453 0 25C0 22.5547 1.99219 20.5625 4.44531 20.5625C6.89062 20.5625 8.88281 22.5547 8.88281 25C8.88281 27.4453 6.89062 29.4453 4.44531 29.4453ZM4.44531 22.0703C2.82812 22.0703 1.51562 23.3828 1.51562 25C1.51562 26.6172 2.82812 27.9297 4.44531 27.9297C6.0625 27.9297 7.36719 26.6172 7.36719 25C7.36719 23.3828 6.05469 22.0703 4.44531 22.0703Z" fill="#0B1422"/>
<path d="M14.7188 47.2422C12.2734 47.2422 10.2812 45.25 10.2812 42.8047C10.2812 40.3594 12.2734 38.3594 14.7188 38.3594C17.1641 38.3594 19.1641 40.3516 19.1641 42.8047C19.1641 45.25 17.1719 47.2422 14.7188 47.2422ZM14.7188 39.875C13.1016 39.875 11.7891 41.1875 11.7891 42.8047C11.7891 44.4219 13.1016 45.7344 14.7188 45.7344C16.3359 45.7344 17.6484 44.4219 17.6484 42.8047C17.6484 41.1875 16.3359 39.875 14.7188 39.875Z" fill="#0B1422"/>
<path d="M35.2891 47.2422C32.8437 47.2422 30.8516 45.25 30.8516 42.8047C30.8516 40.3594 32.8437 38.3594 35.2891 38.3594C37.7344 38.3594 39.7344 40.3516 39.7344 42.8047C39.7266 45.25 37.7344 47.2422 35.2891 47.2422ZM35.2891 39.875C33.6719 39.875 32.3594 41.1875 32.3594 42.8047C32.3594 44.4219 33.6719 45.7344 35.2891 45.7344C36.9062 45.7344 38.2187 44.4219 38.2187 42.8047C38.2187 41.1875 36.8984 39.875 35.2891 39.875Z" fill="#0B1422"/>
<path d="M35.2812 11.6406C32.8359 11.6406 30.8359 9.64844 30.8359 7.19531C30.8359 4.74219 32.8281 2.75 35.2812 2.75C37.7266 2.75 39.7187 4.74219 39.7187 7.19531C39.7187 9.64844 37.7266 11.6406 35.2812 11.6406ZM35.2812 4.26562C33.6641 4.26562 32.3516 5.57812 32.3516 7.19531C32.3516 8.8125 33.6641 10.125 35.2812 10.125C36.8984 10.125 38.2109 8.8125 38.2109 7.19531C38.2109 5.57812 36.8906 4.26562 35.2812 4.26562Z" fill="#0B1422"/>
<path d="M14.7188 11.6406C12.2734 11.6406 10.2812 9.64844 10.2812 7.19531C10.2812 4.74219 12.2734 2.75 14.7188 2.75C17.1641 2.75 19.1641 4.74219 19.1641 7.19531C19.1641 9.64844 17.1719 11.6406 14.7188 11.6406ZM14.7188 4.26562C13.1016 4.26562 11.7891 5.57812 11.7891 7.19531C11.7891 8.8125 13.1016 10.125 14.7188 10.125C16.3359 10.125 17.6484 8.8125 17.6484 7.19531C17.6484 5.57812 16.3359 4.26562 14.7188 4.26562Z" fill="#0B1422"/>
<path d="M31.4531 33.6016H17.7109C14.7813 33.6016 12.3906 31.3281 12.3906 28.5234C12.3906 27.2656 12.8828 26.0703 13.7734 25.1406C14.3906 24.5 15.1562 24.0391 16.0078 23.7891C16.6875 20.6719 18.5937 19.0234 21.3437 19.1484C22.5 17.4453 24.4922 16.3984 26.6484 16.3984C30.1328 16.3984 32.9687 19.1016 32.9687 22.4297V22.4453C35.5937 22.8516 37.6094 25.0469 37.6094 27.6484V27.7422C37.6094 30.9687 34.8437 33.6016 31.4531 33.6016ZM21.0781 20.6563C18.6094 20.6563 17.7266 22.6953 17.4219 24.4766C17.3672 24.7891 17.1172 25.0938 16.8125 25.1562C16.0625 25.3047 15.3984 25.6641 14.875 26.2031C14.2578 26.8438 13.9141 27.6641 13.9141 28.5312C13.9141 30.4922 15.6172 32.0938 17.7188 32.0938H31.4609C34.0156 32.0938 36.0937 30.1406 36.0937 27.75V27.6563C36.0937 25.6172 34.3203 23.9375 32.1406 23.8984C31.9219 23.8984 31.7109 23.7969 31.5703 23.625C31.4297 23.4531 31.3672 23.2344 31.4062 23.0156C31.4375 22.8437 31.4531 22.6562 31.4531 22.4375C31.4531 19.9453 29.2969 17.9219 26.6484 17.9219C24.8672 17.9219 23.2422 18.8438 22.4062 20.3203C22.2578 20.5859 21.9609 20.7344 21.6562 20.7031C21.4531 20.6719 21.2578 20.6563 21.0781 20.6563Z" fill="#0B59DB"/>
</svg>
