<svg width="92" height="93" viewBox="0 0 92 93" fill="none" xmlns="http://www.w3.org/2000/svg">
<path d="M71.391 46.0468C66.7355 48.5732 62.0627 51.1092 57.2098 53.2466C52.8565 55.165 48.3099 56.8786 43.5687 57.5008C39.2453 58.073 34.8504 57.4658 31.0343 55.2838C29.8848 54.6282 28.812 53.8427 27.8082 52.9862C30.3648 51.9303 32.7826 50.5889 34.9465 48.8313C38.9933 45.5435 42.1225 40.7633 42.2643 35.4257C42.3888 30.717 40.0856 26.1582 35.5134 24.4498C31.2086 22.8357 25.9098 24.0649 22.6592 27.2797C18.9646 30.9326 17.6681 36.3048 18.23 41.3578C18.6497 45.1303 20.1881 48.6518 22.451 51.6358C21.4525 51.9143 20.4565 52.1731 19.451 52.3828C13.7739 53.6031 7.95167 54.2454 2.15118 54.3794C0.232426 54.4233 0.0214304 57.4194 1.95983 57.3781C7.86841 57.2421 13.8109 56.6272 19.6058 55.4222C21.2924 55.0728 22.9745 54.6349 24.6274 54.1133C27.9747 57.421 32.3209 59.7353 36.9732 60.4517C42.8236 61.3546 48.7601 59.7644 54.1974 57.7104C60.6285 55.2895 66.68 52.0048 72.7018 48.7322C74.3882 47.8276 73.0922 45.1202 71.391 46.0468ZM22.8131 46.4784C20.9447 42.5429 20.4916 37.9153 21.9919 33.7796C23.4277 29.8352 26.8492 26.874 31.1512 26.7463C35.3328 26.6231 38.5474 29.3185 39.1597 33.4554C39.8294 37.9831 37.5027 42.3636 34.2994 45.3969C31.7694 47.7942 28.7387 49.4599 25.5133 50.6531C24.4424 49.3886 23.5244 47.9921 22.8131 46.4784Z" fill="#6653E8"/>
<path d="M89.4119 35.1207C80.4942 37.033 71.5643 38.9477 62.6467 40.86C60.7535 41.2627 61.3312 44.2129 63.2244 43.8102C70.7332 42.1993 78.242 40.5885 85.7509 38.9776C81.0511 44.5695 76.3637 50.1591 71.6689 55.7437C70.4273 57.2249 72.9288 58.8858 74.1605 57.4192C79.7538 50.7524 85.3545 44.0906 90.9478 37.4238C91.8019 36.4077 90.5994 34.8626 89.4119 35.1207Z" fill="#6653E8"/>
</svg>
