<svg width="42" height="34" viewBox="0 0 42 34" fill="none" xmlns="http://www.w3.org/2000/svg">
<path d="M25 25C25 21.2288 25 19.3432 26.1716 18.1716C27.3431 17 29.2288 17 33 17C36.7712 17 38.6569 17 39.8284 18.1716C41 19.3432 41 21.2288 41 25C41 28.7712 41 30.6569 39.8284 31.8284C38.6569 33 36.7712 33 33 33C29.2288 33 27.3431 33 26.1716 31.8284C25 30.6569 25 28.7712 25 25Z" stroke="#6653E8" stroke-width="1.5"/>
<path d="M25 27V18.0358C25 10.0906 30.0314 3.3526 37 1" stroke="#6653E8" stroke-width="1.5" stroke-linecap="round"/>
<path d="M1 25C1 21.2288 1 19.3432 2.1716 18.1716C3.3432 17 5.2288 17 9 17C12.7712 17 14.6568 17 15.8284 18.1716C17 19.3432 17 21.2288 17 25C17 28.7712 17 30.6569 15.8284 31.8284C14.6568 33 12.7712 33 9 33C5.2288 33 3.3432 33 2.1716 31.8284C1 30.6569 1 28.7712 1 25Z" stroke="#6653E8" stroke-width="1.5"/>
<path d="M1 27V18.0358C1 10.0906 6.0314 3.3526 13 1" stroke="#6653E8" stroke-width="1.5" stroke-linecap="round"/>
</svg>
