<svg width="40" height="40" viewBox="0 0 40 40" fill="none" xmlns="http://www.w3.org/2000/svg">
<g clip-path="url(#clip0_1844_10178)">
<path d="M10.093 26.3664C14.8328 26.3664 18.6883 22.5109 18.6883 17.7711C18.6883 17.4695 18.6719 17.1687 18.6406 16.8711C19.9188 17.725 21.425 18.2641 23.0469 18.3742V25.5484C23.0469 25.8937 23.3266 26.1734 23.6719 26.1734H25.6102V28.4195C25.6102 28.6836 25.7766 28.9195 26.0258 29.0086C26.0945 29.0328 26.1648 29.0445 26.2352 29.0445C26.4195 29.0445 26.5992 28.9625 26.7195 28.8141L28.8703 26.1727H35.9719C36.3172 26.1727 36.5969 25.893 36.5969 25.5477V16.4031C36.5969 16.0578 36.3172 15.7781 35.9719 15.7781H30.043C31.7141 14.1305 32.7523 11.8414 32.7523 9.31484C32.7523 4.30781 28.6789 0.234375 23.6719 0.234375C18.6648 0.234375 14.5914 4.30781 14.5914 9.31484C14.5914 9.71328 14.6172 10.1063 14.668 10.4922C13.3086 9.63516 11.732 9.175 10.093 9.175C5.35313 9.175 1.49766 13.0305 1.49766 17.7703C1.49766 22.5102 5.35313 26.3656 10.093 26.3656V26.3664ZM35.3469 17.0289V24.9234H28.5734C28.3852 24.9234 28.2078 25.0078 28.0891 25.1539L26.8602 26.6625V25.5484C26.8602 25.2031 26.5805 24.9234 26.2352 24.9234H24.2969V18.3742C25.8164 18.2703 27.2352 17.7906 28.4594 17.0281C29.6836 16.2656 35.3469 17.0289 35.3469 17.0289ZM23.6719 1.48516C27.9898 1.48516 31.5023 4.99766 31.5023 9.31562C31.5023 13.6336 27.9898 17.1461 23.6719 17.1461C19.3539 17.1461 15.8414 13.6336 15.8414 9.31562C15.8414 4.99766 19.3539 1.48516 23.6719 1.48516ZM10.093 10.4258C11.9836 10.4258 13.7758 11.1414 15.1461 12.4414C15.5805 13.6227 16.2539 14.6891 17.107 15.5828C17.3273 16.2883 17.4391 17.025 17.4391 17.7711C17.4391 21.8211 14.1437 25.1164 10.0937 25.1164C6.04375 25.1164 2.74844 21.8211 2.74844 17.7711C2.74844 13.7211 6.04375 10.4258 10.0937 10.4258H10.093ZM38.6727 27.0352C37.718 26.3703 36.2812 26.3203 34.8289 26.9008L25.6711 30.5617C25.675 30.4547 25.6742 30.3461 25.6656 30.2359C25.6148 29.5516 25.1906 27.9563 22.3508 27.9297C19.9859 27.9078 17.4922 27.85 15.282 27.4195C14.9344 27.3516 14.6 27.2773 14.2758 27.2055C12.3516 26.7773 10.5289 26.3727 6.54375 27.5117C6.50469 26.6836 5.82031 26.0211 4.98203 26.0211H1.8C0.936719 26.0211 0.234375 26.7234 0.234375 27.5867V37.9305C0.234375 38.7938 0.936719 39.4961 1.8 39.4961H4.98281C5.73984 39.4961 6.37266 38.9562 6.51719 38.2414C7.86484 38.3344 8.6 38.4883 9.04688 38.6C12.257 39.4031 14.925 39.7656 17.2992 39.7656C23.1703 39.7656 27.2391 37.5477 33.2188 34.2875C35.575 33.0031 38.6031 31.1734 39.6438 29.7539C39.7188 29.6508 39.7609 29.5281 39.7648 29.4008C39.7914 28.3844 39.4031 27.5445 38.6734 27.0359L38.6727 27.0352ZM5.29766 37.9297C5.29766 38.1008 5.15313 38.2453 4.98203 38.2453H1.8C1.62891 38.2453 1.48438 38.1008 1.48438 37.9297V27.5859C1.48438 27.4148 1.62891 27.2703 1.8 27.2703H4.98281C5.15391 27.2703 5.29844 27.4148 5.29844 27.5859V37.9297H5.29766ZM32.6203 33.1891C24.2336 37.7609 20.0234 40.0562 9.35 37.3867C8.85078 37.2617 8.02891 37.0898 6.54766 36.9906V28.8133C10.468 27.6398 12.1094 28.0039 14.0039 28.4258C14.3359 28.4992 14.6781 28.5758 15.043 28.6469C17.357 29.0977 19.9164 29.157 22.3383 29.1797C23.6633 29.1922 24.3633 29.5781 24.4187 30.3281C24.4516 30.7711 24.3203 31.1234 24.0062 31.4367C22.7086 32.7305 18.7398 32.9219 15.4594 32.6695C15.1148 32.643 14.8148 32.9008 14.7883 33.2445C14.7617 33.5891 15.0195 33.8891 15.3633 33.9156C16.1164 33.9734 17.0297 34.0211 17.9977 34.0211C20.5656 34.0211 23.5195 33.6859 24.8883 32.3219C24.9406 32.2695 24.9898 32.2156 25.0367 32.1609L35.2922 28.0617C36.3211 27.65 37.368 27.65 37.9578 28.0617C38.2984 28.2992 38.4844 28.6719 38.5117 29.1711C37.7039 30.1258 35.5812 31.5758 32.6195 33.1906L32.6203 33.1891ZM6.29219 21.4352C6.21719 21.8258 6.37109 22.2133 6.69219 22.4461C7.01328 22.6797 7.42969 22.7055 7.77734 22.5141L10.0922 21.2398L12.407 22.5141C12.5617 22.5992 12.7305 22.6414 12.8977 22.6414C13.1062 22.6414 13.3141 22.5758 13.4922 22.4461C13.8133 22.2125 13.9672 21.825 13.8922 21.4352L13.3953 18.8398L15.3227 17.032C15.6125 16.7602 15.7164 16.3562 15.5938 15.9789C15.4711 15.6008 15.15 15.3352 14.7555 15.2859L12.1336 14.9563L11.0102 12.5641C10.8414 12.2047 10.4891 11.9813 10.0922 11.9813C9.69531 11.9813 9.34297 12.2047 9.17422 12.5641L8.05078 14.9563L5.42891 15.2859C5.03437 15.3352 4.71328 15.6008 4.59062 15.9789C4.46797 16.357 4.57187 16.7602 4.86172 17.032L6.78906 18.8398L6.29219 21.4352ZM6.08281 16.4633L8.54844 16.1531C8.76094 16.1266 8.94531 15.993 9.03594 15.7984L10.093 13.5492L11.15 15.7984C11.2414 15.9922 11.425 16.1258 11.6375 16.1531L14.1031 16.4633L12.2906 18.1633C12.1344 18.3102 12.0641 18.5266 12.1047 18.7367L12.5719 21.1773L10.3945 19.9789C10.207 19.8758 9.97969 19.8758 9.79141 19.9789L7.61484 21.1773L8.08203 18.7367C8.12266 18.5266 8.05234 18.3102 7.89609 18.1633L6.08359 16.4633H6.08281ZM19.2562 14.1508H20.5008C20.8227 14.1508 21.1109 14.0047 21.3039 13.775C21.5195 13.8125 21.7031 13.8656 21.9039 13.9242C22.1203 13.9867 22.3664 14.0578 22.6688 14.1133C23.007 14.175 23.732 14.2461 24.5523 14.2461C25.8219 14.2461 27.3187 14.075 27.9609 13.4328C27.9641 13.4297 27.9672 13.4266 27.9703 13.4234C28.7469 12.6141 29.232 9.34844 29.1133 8.55078C29.0445 8.09141 28.9672 7.57031 28.4586 7.20937C28.0289 6.90391 27.3906 6.79062 26.2586 6.81875H26.0766C26.2977 4.52422 25.925 3.19297 24.9437 2.75859C24.1953 2.42734 23.3492 2.79453 22.9 3.32969C22.1008 4.28125 21.9734 5.25469 21.8812 5.96563C21.7844 6.70938 21.7438 7.01719 21.1969 7.17734C21.0117 7.0125 20.768 6.91094 20.5008 6.91094H19.2562C18.6781 6.91094 18.2086 7.38125 18.2086 7.95859V13.1023C18.2086 13.6805 18.6789 14.15 19.2562 14.15V14.1508ZM23.1203 6.12734C23.2047 5.47734 23.2922 4.80547 23.857 4.13359C23.9922 3.97187 24.2812 3.83281 24.4375 3.90156C24.468 3.91484 25.1758 4.26641 24.7547 7.35937C24.7305 7.53828 24.7844 7.71875 24.9031 7.85469C25.0219 7.99063 25.1938 8.06875 25.3742 8.06875H26.2672H26.2828C27.3141 8.04219 27.6359 8.15781 27.7359 8.22891C27.8023 8.27578 27.8312 8.42656 27.8773 8.73516C27.9758 9.39766 27.4437 12.1336 27.0719 12.5547C26.5961 13.0094 24.0555 13.0945 22.893 12.8828C22.6531 12.8391 22.4578 12.7828 22.2516 12.7227C22.0352 12.6602 21.8148 12.5969 21.5492 12.5484V8.37109C22.8805 7.96563 23.0133 6.95625 23.1211 6.12656L23.1203 6.12734ZM19.4578 8.16172H20.2977V12.9016H19.4578V8.16172ZM27.5062 20.9766C27.5062 21.5047 27.0781 21.932 26.5508 21.932C26.0234 21.932 25.5953 21.5039 25.5953 20.9766C25.5953 20.4492 26.0234 20.0211 26.5508 20.0211C27.0781 20.0211 27.5062 20.4492 27.5062 20.9766ZM32.1359 20.9766C32.1359 20.4484 32.5641 20.0211 33.0914 20.0211C33.6188 20.0211 34.0469 20.4492 34.0469 20.9766C34.0469 21.5039 33.6188 21.932 33.0914 21.932C32.5641 21.932 32.1359 21.5039 32.1359 20.9766ZM28.8656 20.9766C28.8656 20.4484 29.2937 20.0211 29.8211 20.0211C30.3484 20.0211 30.7766 20.4492 30.7766 20.9766C30.7766 21.5039 30.3484 21.932 29.8211 21.932C29.2937 21.932 28.8656 21.5039 28.8656 20.9766Z" fill="#6653E8"/>
</g>
<defs>
<clipPath id="clip0_1844_10178">
<rect width="40" height="40" fill="white"/>
</clipPath>
</defs>
</svg>
