<svg width="40" height="40" viewBox="0 0 40 40" fill="none" xmlns="http://www.w3.org/2000/svg">
<path d="M30 39.9998C29.89 39.9998 29.78 39.9781 29.6767 39.9348C29.28 39.7664 20 35.7564 20 27.5598V20.5948C20 20.2364 20.2283 19.9198 20.5667 19.8048L29.7333 16.7098C29.9067 16.6514 30.095 16.6514 30.2667 16.7098L39.4333 19.8048C39.7717 19.9181 40 20.2364 40 20.5948V27.5598C40 35.7564 30.72 39.7664 30.3233 39.9348C30.22 39.9781 30.11 39.9998 30 39.9998ZM21.6667 21.1948V27.5598C21.6667 33.8664 28.425 37.4898 30 38.2481C31.5733 37.4881 38.3333 33.8498 38.3333 27.5598V21.1948L30 18.3798L21.6667 21.1948Z" fill="#6653E8"/>
<path d="M29.1668 31.6664C29.1518 31.6664 29.1352 31.6664 29.1218 31.6648C28.8835 31.6514 28.6652 31.5398 28.5168 31.3531L25.1835 27.1864C24.8968 26.8264 24.9535 26.3031 25.3135 26.0148C25.6752 25.7314 26.1968 25.7881 26.4852 26.1448L29.2352 29.5831L34.4102 24.4098C34.7352 24.0848 35.2635 24.0848 35.5885 24.4098C35.9135 24.7348 35.9135 25.2631 35.5885 25.5881L29.7552 31.4214C29.6002 31.5781 29.3868 31.6664 29.1668 31.6664Z" fill="#6653E8"/>
<path d="M30.8333 13.3327H5.83333C2.61667 13.3327 0 10.716 0 7.49935C0 4.28268 2.61667 1.66602 5.83333 1.66602H30.8333C34.05 1.66602 36.6667 4.28268 36.6667 7.49935C36.6667 10.716 34.05 13.3327 30.8333 13.3327ZM5.83333 3.33268C3.535 3.33268 1.66667 5.20102 1.66667 7.49935C1.66667 9.79768 3.535 11.666 5.83333 11.666H30.8333C33.1317 11.666 35 9.79768 35 7.49935C35 5.20102 33.1317 3.33268 30.8333 3.33268H5.83333Z" fill="#6653E8"/>
<path d="M7.5 10C6.12167 10 5 8.87833 5 7.5C5 6.12167 6.12167 5 7.5 5C8.87833 5 10 6.12167 10 7.5C10 8.87833 8.87833 10 7.5 10ZM7.5 6.66667C7.04167 6.66667 6.66667 7.04167 6.66667 7.5C6.66667 7.95833 7.04167 8.33333 7.5 8.33333C7.95833 8.33333 8.33333 7.95833 8.33333 7.5C8.33333 7.04167 7.95833 6.66667 7.5 6.66667Z" fill="#6653E8"/>
<path d="M15.8335 10C14.4552 10 13.3335 8.87833 13.3335 7.5C13.3335 6.12167 14.4552 5 15.8335 5C17.2118 5 18.3335 6.12167 18.3335 7.5C18.3335 8.87833 17.2118 10 15.8335 10ZM15.8335 6.66667C15.3752 6.66667 15.0002 7.04167 15.0002 7.5C15.0002 7.95833 15.3752 8.33333 15.8335 8.33333C16.2918 8.33333 16.6668 7.95833 16.6668 7.5C16.6668 7.04167 16.2918 6.66667 15.8335 6.66667Z" fill="#6653E8"/>
<path d="M15.8333 23.3327H5.83333C2.61667 23.3327 0 20.716 0 17.4993C0 15.9427 0.606667 14.4793 1.71 13.376C2.81333 12.2727 4.27667 11.666 5.83333 11.666H30.8333C32.1367 11.666 33.365 12.0843 34.38 12.876C34.7433 13.1593 34.8083 13.6827 34.525 14.046C34.2417 14.4077 33.7183 14.4727 33.355 14.191C32.635 13.6293 31.7633 13.3327 30.8333 13.3327H5.83333C4.72333 13.3327 3.67667 13.7677 2.88833 14.5543C2.1 15.341 1.66667 16.3893 1.66667 17.4993C1.66667 19.7977 3.535 21.666 5.83333 21.666H15.8333C16.2933 21.666 16.6667 22.0393 16.6667 22.4993C16.6667 22.9593 16.2933 23.3327 15.8333 23.3327Z" fill="#6653E8"/>
<path d="M7.5 20C6.12167 20 5 18.8783 5 17.5C5 16.1217 6.12167 15 7.5 15C8.87833 15 10 16.1217 10 17.5C10 18.8783 8.87833 20 7.5 20ZM7.5 16.6667C7.04167 16.6667 6.66667 17.0417 6.66667 17.5C6.66667 17.9583 7.04167 18.3333 7.5 18.3333C7.95833 18.3333 8.33333 17.9583 8.33333 17.5C8.33333 17.0417 7.95833 16.6667 7.5 16.6667Z" fill="#6653E8"/>
<path d="M15.8335 20C14.4552 20 13.3335 18.8783 13.3335 17.5C13.3335 16.1217 14.4552 15 15.8335 15C17.2118 15 18.3335 16.1217 18.3335 17.5C18.3335 18.8783 17.2118 20 15.8335 20ZM15.8335 16.6667C15.3752 16.6667 15.0002 17.0417 15.0002 17.5C15.0002 17.9583 15.3752 18.3333 15.8335 18.3333C16.2918 18.3333 16.6668 17.9583 16.6668 17.5C16.6668 17.0417 16.2918 16.6667 15.8335 16.6667Z" fill="#6653E8"/>
<path d="M15.8333 33.3327H5.83333C2.61667 33.3327 0 30.716 0 27.4993C0 25.9427 0.606667 24.4793 1.71 23.376C2.81333 22.2727 4.27667 21.666 5.83333 21.666H15.8333C16.2933 21.666 16.6667 22.0393 16.6667 22.4993C16.6667 22.9593 16.2933 23.3327 15.8333 23.3327H5.83333C4.72333 23.3327 3.67667 23.7677 2.88833 24.5543C2.1 25.341 1.66667 26.3893 1.66667 27.4993C1.66667 29.7977 3.535 31.666 5.83333 31.666H15.8333C16.2933 31.666 16.6667 32.0393 16.6667 32.4993C16.6667 32.9593 16.2933 33.3327 15.8333 33.3327Z" fill="#6653E8"/>
<path d="M7.5 30C6.12167 30 5 28.8783 5 27.5C5 26.1217 6.12167 25 7.5 25C8.87833 25 10 26.1217 10 27.5C10 28.8783 8.87833 30 7.5 30ZM7.5 26.6667C7.04167 26.6667 6.66667 27.0417 6.66667 27.5C6.66667 27.9583 7.04167 28.3333 7.5 28.3333C7.95833 28.3333 8.33333 27.9583 8.33333 27.5C8.33333 27.0417 7.95833 26.6667 7.5 26.6667Z" fill="#6653E8"/>
<path d="M15.8335 30C14.4552 30 13.3335 28.8783 13.3335 27.5C13.3335 26.1217 14.4552 25 15.8335 25C17.2118 25 18.3335 26.1217 18.3335 27.5C18.3335 28.8783 17.2118 30 15.8335 30ZM15.8335 26.6667C15.3752 26.6667 15.0002 27.0417 15.0002 27.5C15.0002 27.9583 15.3752 28.3333 15.8335 28.3333C16.2918 28.3333 16.6668 27.9583 16.6668 27.5C16.6668 27.0417 16.2918 26.6667 15.8335 26.6667Z" fill="#6653E8"/>
</svg>
