<svg width="40" height="40" viewBox="0 0 40 40" fill="none" xmlns="http://www.w3.org/2000/svg">
<path d="M31.1977 17.8592C30.8765 18.1638 30.4472 18.334 30.0003 18.334C29.5535 18.334 29.1242 18.1638 28.803 17.8592C25.8613 15.0535 21.9193 11.9192 23.8418 7.36873C24.8812 4.90835 27.3763 3.33398 30.0003 3.33398C32.6243 3.33398 35.1193 4.90835 36.1588 7.36873C38.0788 11.9134 34.1465 15.0631 31.1977 17.8592Z" stroke="#6653E8" stroke-width="1.5"/>
<path d="M30 10H30.015" stroke="#6653E8" stroke-width="2" stroke-linecap="round" stroke-linejoin="round"/>
<path d="M8.3335 36.666C11.0949 36.666 13.3335 34.4274 13.3335 31.666C13.3335 28.9046 11.0949 26.666 8.3335 26.666C5.57207 26.666 3.3335 28.9046 3.3335 31.666C3.3335 34.4274 5.57207 36.666 8.3335 36.666Z" stroke="#6653E8" stroke-width="1.5" stroke-linecap="round" stroke-linejoin="round"/>
<path d="M18.3333 11.666H15.8333C12.6117 11.666 10 13.9046 10 16.666C10 19.4275 12.6117 21.666 15.8333 21.666H20.8333C24.055 21.666 26.6667 23.9045 26.6667 26.666C26.6667 29.4275 24.055 31.666 20.8333 31.666H18.3333" stroke="#6653E8" stroke-width="1.5" stroke-linecap="round" stroke-linejoin="round"/>
</svg>
