<svg width="40" height="40" viewBox="0 0 40 40" fill="none" xmlns="http://www.w3.org/2000/svg">
<path d="M20.0002 36.666L16.6668 26.666H3.3335L6.66683 36.666H20.0002ZM20.0002 36.666H26.6668" stroke="#6653E8" stroke-width="1.5" stroke-linecap="round" stroke-linejoin="round"/>
<path d="M19.9998 21.666V20.8327C19.9998 17.69 19.9998 16.1186 19.0235 15.1423C18.0472 14.166 16.4759 14.166 13.3332 14.166C10.1905 14.166 8.61912 14.166 7.64282 15.1423C6.6665 16.1186 6.6665 17.69 6.6665 20.8327V21.666" stroke="#6653E8" stroke-width="1.5" stroke-linecap="round" stroke-linejoin="round"/>
<path d="M31.6667 21.6673C31.6667 23.5083 30.1743 25.0007 28.3333 25.0007C26.4923 25.0007 25 23.5083 25 21.6673C25 19.8263 26.4923 18.334 28.3333 18.334C30.1743 18.334 31.6667 19.8263 31.6667 21.6673Z" stroke="#6653E8" stroke-width="1.5"/>
<path d="M16.6667 6.66732C16.6667 8.50827 15.1743 10.0007 13.3333 10.0007C11.4924 10.0007 10 8.50827 10 6.66732C10 4.82637 11.4924 3.33398 13.3333 3.33398C15.1743 3.33398 16.6667 4.82637 16.6667 6.66732Z" stroke="#6653E8" stroke-width="1.5"/>
<path d="M23.3335 29.166H33.3335C35.1745 29.166 36.6668 30.6583 36.6668 32.4993V33.3327C36.6668 35.1737 35.1745 36.666 33.3335 36.666H31.6668" stroke="#6653E8" stroke-width="1.5" stroke-linecap="round"/>
</svg>
