<svg width="40" height="40" viewBox="0 0 40 40" fill="none" xmlns="http://www.w3.org/2000/svg">
<path d="M11.6366 17.6969C11.3336 15.3333 13.0305 13.1515 15.3942 12.8485C16.9093 12.6666 18.3033 13.2727 19.2124 14.303" stroke="#6653E8" stroke-width="1.5" stroke-miterlimit="10" stroke-linecap="round" stroke-linejoin="round"/>
<path d="M11.6968 17.6367C10.1211 17.8185 8.96955 19.3337 9.21198 20.9094C9.39379 22.4852 10.8483 23.6367 12.4847 23.3943L33.0908 23.3337C34.4241 23.3337 35.5756 22.1822 35.515 20.8488C35.515 20.1822 35.212 19.5761 34.7877 19.1519C34.3635 18.7276 33.6968 18.4246 33.0302 18.4246" stroke="#6653E8" stroke-width="1.5" stroke-miterlimit="10" stroke-linecap="round" stroke-linejoin="round"/>
<path d="M28.1816 14.4858C28.9695 14.0615 29.8786 14.0009 30.7877 14.2434C32.5453 14.7888 33.515 16.7282 32.9695 18.4858" stroke="#6653E8" stroke-width="1.5" stroke-miterlimit="10" stroke-linecap="round" stroke-linejoin="round"/>
<path d="M18.7881 13.6364C19.3335 11.5152 21.2729 9.93945 23.576 9.93945C26.1214 9.93945 28.182 11.8182 28.4851 14.3031" stroke="#6653E8" stroke-width="1.5" stroke-miterlimit="10" stroke-linecap="round" stroke-linejoin="round"/>
<path d="M6.18147 8.5454C5.75723 5.09085 8.18147 1.93933 11.636 1.51509C13.8178 1.21206 15.8784 2.12115 17.2118 3.6363" stroke="#6653E8" stroke-width="1.5" stroke-miterlimit="10" stroke-linecap="round" stroke-linejoin="round"/>
<path d="M32.7276 15.6368C34.4246 15.6368 35.7579 14.2429 35.7579 12.5459C35.7579 11.6974 35.3943 10.9702 34.8488 10.4247C34.3034 9.87926 33.5155 9.51562 32.667 9.51562" stroke="#6653E8" stroke-width="1.5" stroke-miterlimit="10" stroke-linecap="round" stroke-linejoin="round"/>
<path d="M6.18181 8.48633C4.18181 8.72875 2.78788 10.5469 3.0303 12.5469C3.27272 14.5469 5.09091 15.9409 7.09091 15.6984H11.5758" stroke="#6653E8" stroke-width="1.5" stroke-miterlimit="10" stroke-linecap="round" stroke-linejoin="round"/>
<path d="M26.7271 4.54579C27.6967 4.06094 28.8483 3.87912 29.9392 4.24276C32.121 4.97003 33.3331 7.27306 32.6058 9.51548" stroke="#6653E8" stroke-width="1.5" stroke-miterlimit="10" stroke-linecap="round" stroke-linejoin="round"/>
<path d="M16.4238 5.2735C17.0299 2.97047 19.1511 1.21289 21.6966 1.21289C24.4844 1.21289 26.7875 3.2735 27.0905 6.00077" stroke="#6653E8" stroke-width="1.5" stroke-miterlimit="10" stroke-linecap="round" stroke-linejoin="round"/>
<path d="M22.4849 23.4551V30.4854" stroke="#6653E8" stroke-width="1.5" stroke-miterlimit="10" stroke-linecap="round" stroke-linejoin="round"/>
<path d="M22.4844 34.0617C23.3547 34.0617 24.0602 33.3562 24.0602 32.4859C24.0602 31.6156 23.3547 30.9102 22.4844 30.9102C21.6142 30.9102 20.9087 31.6156 20.9087 32.4859C20.9087 33.3562 21.6142 34.0617 22.4844 34.0617Z" stroke="#6653E8" stroke-width="1.5" stroke-miterlimit="10" stroke-linecap="round" stroke-linejoin="round"/>
<path d="M14.3028 35.88C15.1731 35.88 15.8786 35.1745 15.8786 34.3043C15.8786 33.434 15.1731 32.7285 14.3028 32.7285C13.4325 32.7285 12.7271 33.434 12.7271 34.3043C12.7271 35.1745 13.4325 35.88 14.3028 35.88Z" stroke="#6653E8" stroke-width="1.5" stroke-miterlimit="10" stroke-linecap="round" stroke-linejoin="round"/>
<path d="M18.1213 23.6973V27.2124C18.1213 28.2427 17.2729 29.0912 16.2426 29.0912C15.2123 29.0912 14.3638 29.9397 14.3638 30.97V32.3639" stroke="#6653E8" stroke-width="1.5" stroke-miterlimit="10" stroke-linecap="round" stroke-linejoin="round"/>
<path d="M9.7574 38.7882C10.6277 38.7882 11.3332 38.0827 11.3332 37.2125C11.3332 36.3422 10.6277 35.6367 9.7574 35.6367C8.88713 35.6367 8.18164 36.3422 8.18164 37.2125C8.18164 38.0827 8.88713 38.7882 9.7574 38.7882Z" stroke="#6653E8" stroke-width="1.5" stroke-miterlimit="10" stroke-linecap="round" stroke-linejoin="round"/>
<path d="M13.8784 23.6973V25.0912C13.8784 26.1215 13.0299 26.97 11.9996 26.97H11.7572C10.7269 26.97 9.87842 27.8185 9.87842 28.8488V35.273" stroke="#6653E8" stroke-width="1.5" stroke-miterlimit="10" stroke-linecap="round" stroke-linejoin="round"/>
<path d="M35.3941 38.7882C36.2644 38.7882 36.9699 38.0827 36.9699 37.2125C36.9699 36.3422 36.2644 35.6367 35.3941 35.6367C34.5239 35.6367 33.8184 36.3422 33.8184 37.2125C33.8184 38.0827 34.5239 38.7882 35.3941 38.7882Z" stroke="#6653E8" stroke-width="1.5" stroke-miterlimit="10" stroke-linecap="round" stroke-linejoin="round"/>
<path d="M31.333 23.6973V25.0912C31.333 26.1215 32.1815 26.97 33.2118 26.97H33.4542C34.4845 26.97 35.333 27.8185 35.333 28.8488V35.273" stroke="#6653E8" stroke-width="1.5" stroke-miterlimit="10" stroke-linecap="round" stroke-linejoin="round"/>
<path d="M30.7271 35.88C31.5974 35.88 32.3029 35.1745 32.3029 34.3043C32.3029 33.434 31.5974 32.7285 30.7271 32.7285C29.8569 32.7285 29.1514 33.434 29.1514 34.3043C29.1514 35.1745 29.8569 35.88 30.7271 35.88Z" stroke="#6653E8" stroke-width="1.5" stroke-miterlimit="10" stroke-linecap="round" stroke-linejoin="round"/>
<path d="M26.9087 23.6973V27.2124C26.9087 28.2427 27.7572 29.0912 28.7875 29.0912C29.8178 29.0912 30.6663 29.9397 30.6663 30.97V32.3639" stroke="#6653E8" stroke-width="1.5" stroke-miterlimit="10" stroke-linecap="round" stroke-linejoin="round"/>
</svg>
