<svg width="40" height="40" viewBox="0 0 40 40" fill="none" xmlns="http://www.w3.org/2000/svg">
<path d="M27.2717 25.4967H30.2437C34.5075 25.4967 37.9767 22.0274 37.9767 17.7636C37.9767 13.9854 35.2429 10.7721 31.5588 10.1426C31.3028 8.2235 30.3853 6.45618 28.9487 5.13401C27.4118 3.71922 25.4133 2.93945 23.3231 2.93945C20.6522 2.93945 18.1682 4.21105 16.604 6.35969C15.8413 6.08109 15.0406 5.94023 14.2188 5.94023C12.4055 5.94023 10.6888 6.63284 9.38297 7.89043C8.1713 9.05774 7.432 10.597 7.27791 12.2577C5.86857 12.5682 4.58764 13.3324 3.639 14.4367C2.59698 15.6492 2.02344 17.1986 2.02344 18.7986C2.02344 22.492 5.02811 25.4967 8.72149 25.4967H12.1301V28.3457L10.9985 29.1574C10.7635 28.99 10.4764 28.8904 10.1666 28.8904C9.37363 28.8904 8.72772 29.5356 8.72772 30.3293C8.72772 31.1231 9.37285 31.7682 10.1666 31.7682C10.9604 31.7682 11.6055 31.1231 11.6055 30.3293C11.6055 30.1854 11.5837 30.0469 11.5441 29.9161L12.8694 28.9659C12.9915 28.878 13.0639 28.7371 13.0639 28.5861V25.4974H15.5643V31.9932L14.4328 32.8048C14.1978 32.6375 13.9106 32.5379 13.6009 32.5379C12.8079 32.5379 12.162 33.183 12.162 33.9768C12.162 34.7706 12.8071 35.4157 13.6009 35.4157C14.3939 35.4157 15.0398 34.7706 15.0398 33.9768C15.0398 33.8328 15.018 33.6943 14.9783 33.5636L16.3036 32.6134C16.4258 32.5254 16.4981 32.3846 16.4981 32.2336V25.4982H19.2499V34.2655C18.6857 34.4601 18.2787 34.9955 18.2787 35.6251C18.2787 36.4181 18.9238 37.064 19.7176 37.064C20.5114 37.064 21.1565 36.4188 21.1565 35.6251C21.1565 34.9955 20.7495 34.4601 20.1845 34.2655V25.4967H22.9363V32.2321C22.9363 32.3823 23.0087 32.5239 23.1308 32.6118L24.4561 33.562C24.4164 33.6928 24.3946 33.8313 24.3946 33.9753C24.3946 34.7682 25.0398 35.4142 25.8336 35.4142C26.6266 35.4142 27.2725 34.769 27.2725 33.9753C27.2725 33.1815 26.6273 32.5363 25.8336 32.5363C25.523 32.5363 25.2367 32.636 25.0016 32.8033L23.8701 31.9916V25.4959H26.3386V28.5846C26.3386 28.7348 26.411 28.8764 26.5332 28.9644L27.8585 29.9146C27.8188 30.0453 27.797 30.1838 27.797 30.3278C27.797 31.1208 28.4421 31.7667 29.2359 31.7667C30.0297 31.7667 30.6748 31.1216 30.6748 30.3278C30.6748 29.534 30.0297 28.8889 29.2359 28.8889C28.9254 28.8889 28.639 28.9885 28.404 29.1558L27.2725 28.3441V25.4967H27.2717ZM10.1659 30.8336C9.88725 30.8336 9.66079 30.6072 9.66079 30.3286C9.66079 30.05 9.88725 29.8235 10.1659 29.8235C10.4445 29.8235 10.6709 30.05 10.6709 30.3286C10.6709 30.6072 10.4445 30.8336 10.1659 30.8336ZM13.6009 34.4795C13.3223 34.4795 13.0958 34.2531 13.0958 33.9745C13.0958 33.6959 13.3223 33.4694 13.6009 33.4694C13.8795 33.4694 14.1059 33.6959 14.1059 33.9745C14.1059 34.2531 13.8787 34.4795 13.6009 34.4795ZM19.7168 36.1278C19.4382 36.1278 19.2118 35.9013 19.2118 35.6227C19.2118 35.3449 19.4367 35.1192 19.7145 35.1184H19.7168H19.7192C19.9962 35.12 20.2219 35.3457 20.2219 35.6227C20.2219 35.9013 19.9954 36.1278 19.7168 36.1278ZM26.3378 33.9753C26.3378 34.2539 26.1114 34.4803 25.8328 34.4803C25.5542 34.4803 25.3277 34.2539 25.3277 33.9753C25.3277 33.6967 25.5542 33.4702 25.8328 33.4702C26.1114 33.4702 26.3378 33.6967 26.3378 33.9753ZM2.95729 18.7986C2.95729 17.4212 3.45067 16.0881 4.34717 15.0445C5.23433 14.0126 6.45846 13.3247 7.79387 13.1091C8.01332 13.0733 8.17675 12.8889 8.18608 12.6671C8.31527 9.41883 10.9651 6.87408 14.218 6.87408C15.0421 6.87408 15.8406 7.03751 16.5923 7.35891C16.8001 7.44762 17.0413 7.37525 17.1659 7.18692C18.5378 5.11144 20.8398 3.87331 23.3231 3.87331C25.1791 3.87331 26.9526 4.56513 28.3168 5.82117C29.6732 7.06941 30.509 8.76436 30.6701 10.5931C30.6896 10.8126 30.86 10.9893 31.0787 11.0157C34.4795 11.4313 37.0437 14.3324 37.0437 17.7636C37.0437 21.513 33.9939 24.5628 30.2445 24.5628H8.72149C5.54328 24.5628 2.95729 21.9768 2.95729 18.7986ZM29.7402 30.3286C29.7402 30.6072 29.5137 30.8336 29.2351 30.8336C28.9565 30.8336 28.7301 30.6072 28.7301 30.3286C28.7301 30.05 28.9565 29.8235 29.2351 29.8235C29.5137 29.8235 29.7402 30.05 29.7402 30.3286Z" fill="#6653E8"/>
<path d="M13.6661 17.9862C13.4086 17.9862 13.1992 18.1956 13.1992 18.4532C13.1992 18.7107 13.4086 18.9201 13.6661 18.9201H15.1634V19.0625C15.1634 20.152 16.049 21.0391 17.1385 21.0407V22.538C17.1385 22.7956 17.3479 23.0049 17.6054 23.0049C17.863 23.0049 18.0724 22.7956 18.0724 22.538V21.0407H19.337V22.538C19.337 22.7956 19.5463 23.0049 19.8039 23.0049C20.0615 23.0049 20.2708 22.7956 20.2708 22.538V21.0407H21.7782V22.538C21.7782 22.7956 21.9875 23.0049 22.2451 23.0049C22.5027 23.0049 22.7121 22.7956 22.7121 22.538V21.0407H23C24.091 21.0407 24.9782 20.1535 24.9782 19.0625V18.9201H26.4755C26.7331 18.9201 26.9424 18.7107 26.9424 18.4532C26.9424 18.1956 26.7331 17.9862 26.4755 17.9862H24.9782V16.6002H26.4755C26.7331 16.6002 26.9424 16.3909 26.9424 16.1333C26.9424 15.8757 26.7331 15.6664 26.4755 15.6664H24.9782V14.2804H26.4755C26.7331 14.2804 26.9424 14.0711 26.9424 13.8135C26.9424 13.5559 26.7331 13.3465 26.4755 13.3465H24.9782V13.2041C24.9782 12.1131 24.091 11.2259 23 11.2259H22.8576V9.72864C22.8576 9.47106 22.6482 9.26172 22.3907 9.26172C22.1331 9.26172 21.9237 9.47106 21.9237 9.72864V11.2259H20.537V9.72864C20.537 9.47106 20.3276 9.26172 20.07 9.26172C19.8124 9.26172 19.6031 9.47106 19.6031 9.72864V11.2259H18.2179V9.72864C18.2179 9.47106 18.0086 9.26172 17.751 9.26172C17.4934 9.26172 17.284 9.47106 17.284 9.72864V11.2259H17.1416C16.0506 11.2259 15.1634 12.1131 15.1634 13.2041V13.3465H13.6661C13.4086 13.3465 13.1992 13.5559 13.1992 13.8135C13.1992 14.0711 13.4086 14.2804 13.6661 14.2804H15.1634V15.6664H13.6661C13.4086 15.6664 13.1992 15.8757 13.1992 16.1333C13.1992 16.3909 13.4086 16.6002 13.6661 16.6002H15.1634V17.9862H13.6661ZM16.0973 13.2041C16.0973 12.6283 16.5658 12.1598 17.1416 12.1598H23C23.5759 12.1598 24.0444 12.6283 24.0444 13.2041V19.0625C24.0444 19.6384 23.5759 20.1069 23 20.1069H17.1416C16.5658 20.1069 16.0973 19.6384 16.0973 19.0625V13.2041Z" fill="#6653E8"/>
<path d="M22.007 18.2844C22.2646 18.2844 22.4739 18.075 22.4739 17.8174V14.4493C22.4739 14.1918 22.2646 13.9824 22.007 13.9824C21.7494 13.9824 21.54 14.1918 21.54 14.4493V17.8174C21.54 18.075 21.7486 18.2844 22.007 18.2844Z" fill="#6653E8"/>
<path d="M17.667 17.8174C17.667 18.075 17.8763 18.2844 18.1339 18.2844C18.3915 18.2844 18.6008 18.075 18.6008 17.8174V16.8361H19.6662V17.8174C19.6662 18.075 19.8756 18.2844 20.1331 18.2844C20.3907 18.2844 20.6001 18.075 20.6001 17.8174V15.4486C20.6001 14.64 19.9425 13.9824 19.1339 13.9824C18.3254 13.9824 17.6678 14.64 17.6678 15.4486V17.8174H17.667ZM19.1339 14.9163C19.4273 14.9163 19.6662 15.1552 19.6662 15.4486V15.9015H18.6008V15.4486C18.6008 15.1552 18.8398 14.9163 19.1339 14.9163Z" fill="#6653E8"/>
</svg>
