<svg width="40" height="40" viewBox="0 0 40 40" fill="none" xmlns="http://www.w3.org/2000/svg">
<g clip-path="url(#clip0_1845_10217)">
<path d="M1.65733 16.5022C0.839727 16.6348 0.207257 17.2903 0.103996 18.1122C-0.0332917 19.357 -0.0346738 20.613 0.0999811 21.8582C0.193831 22.6928 0.830184 23.3637 1.65865 23.5015L3.77996 23.8488C4.18721 25.5834 4.8747 27.2401 5.81524 28.7534L4.56663 30.4974C4.06907 31.172 4.08112 32.0952 4.59598 32.7567C4.99336 33.2429 5.41622 33.7078 5.86263 34.1494C6.27199 34.5594 6.72459 34.9714 7.26795 35.428C7.92418 35.9327 8.83478 35.9432 9.50259 35.454L11.2552 34.1967C12.767 35.1371 14.422 35.8248 16.1552 36.2327L16.5032 38.3573C16.6355 39.1752 17.2911 39.808 18.1132 39.9113C18.4932 39.954 18.8792 39.984 19.2678 40H19.3245C19.6719 39.9997 20.0061 39.8661 20.2578 39.6266C20.5195 39.3765 20.6672 39.03 20.6664 38.668V33.3254C20.6625 32.6115 20.099 32.0263 19.3858 31.9954C13.0049 31.6622 8.00204 26.3913 8.00204 20.0018C8.00204 13.6123 13.0049 8.34141 19.3858 8.00826C20.1001 7.97693 20.6639 7.39001 20.6664 6.67494V1.33501C20.6675 0.972578 20.5195 0.62574 20.2571 0.375713C19.9951 0.118711 19.6376 -0.0169314 19.2711 0.00169384C18.8831 0.0170284 18.4984 0.0449993 18.1037 0.085014C17.2821 0.190908 16.6297 0.82759 16.5037 1.64631L16.1564 3.76894C14.4233 4.17711 12.7683 4.865 11.2565 5.80561L9.50384 4.55094C8.82984 4.05806 7.91042 4.07273 7.25255 4.58694C6.76921 4.98261 6.30661 5.40289 5.86658 5.84628C5.41306 6.2896 4.98612 6.75932 4.58795 7.25292C4.07928 7.91 4.06624 8.82422 4.55596 9.49559L5.81261 11.2502C4.87286 12.7634 4.18629 14.4199 3.77996 16.1542L1.65733 16.5022ZM4.98599 16.8742C5.37357 14.9912 6.11713 13.1996 7.17667 11.5956C7.3285 11.3649 7.32238 11.0645 7.16133 10.8402L5.64071 8.71694C5.50013 8.53142 5.49605 8.27619 5.6307 8.08625C5.9961 7.63339 6.38815 7.20264 6.80469 6.79624C7.20931 6.38753 7.63427 5.99943 8.07799 5.63357C8.26898 5.48799 8.53368 5.48799 8.72467 5.63357L10.8447 7.15492C11.0692 7.31557 11.3696 7.3211 11.6 7.16894C13.2027 6.10901 14.9933 5.36518 16.8753 4.97761C17.1459 4.92186 17.354 4.70494 17.3987 4.43227L17.818 1.86495C17.8481 1.63466 18.0249 1.45104 18.254 1.41228C18.6066 1.37562 18.964 1.34962 19.3333 1.33495L19.3186 6.67553C12.2211 7.03804 6.65345 12.9005 6.6574 20.0074C6.66128 27.1142 12.2354 32.9705 19.3333 33.3252L19.324 38.6678C18.9659 38.6532 18.6113 38.6252 18.2613 38.5858C18.0313 38.5522 17.8509 38.3708 17.8187 38.1405L17.3987 35.5718C17.354 35.2992 17.1459 35.0823 16.8753 35.0265C14.9933 34.6386 13.2027 33.8946 11.6 32.8345C11.3695 32.6825 11.0692 32.6883 10.8447 32.8492L8.7227 34.3719C8.54171 34.5126 8.2903 34.5193 8.10201 34.3885C7.61203 33.9759 7.18733 33.5885 6.80469 33.2065C6.39592 32.8026 6.00808 32.3781 5.64268 31.9345C5.49888 31.7425 5.49888 31.4786 5.64268 31.2865L7.16199 29.1652C7.32284 28.9408 7.3287 28.6404 7.17667 28.4099C6.11707 26.8061 5.3735 25.0147 4.98599 23.1319C4.93031 22.8616 4.71372 22.6535 4.44132 22.6086L1.87465 22.1879C1.63574 22.1484 1.45232 21.9546 1.426 21.7139C1.30115 20.5672 1.30246 19.4103 1.43001 18.2639C1.46318 18.0337 1.6443 17.8528 1.87465 17.82L4.44059 17.3999C4.71405 17.3552 4.93117 17.1458 4.98599 16.8742Z" fill="#6653E8"/>
<path d="M37.9996 18.0009C37.1551 18.0044 36.4038 18.538 36.1223 19.3343H20.6664V17.3342H31.333C32.4376 17.3342 33.333 16.4388 33.333 15.3343V11.8783C34.2513 11.5537 34.8022 10.6146 34.6375 9.65457C34.4727 8.69454 33.6403 7.99277 32.6663 7.99277C31.6922 7.99277 30.8598 8.69454 30.6951 9.65457C30.5303 10.6146 31.0812 11.5537 31.9996 11.8783V15.3343C31.9996 15.7025 31.7011 16.001 31.3329 16.001H20.6664V14.001H27.9997C28.3678 14.001 28.6663 13.7025 28.6663 13.3343C28.6663 12.9661 28.3678 12.6676 27.9997 12.6676H20.6664V11.3343H24.6664C25.771 11.3343 26.6664 10.4389 26.6664 9.33425V5.21175C27.5848 4.88709 28.1356 3.94799 27.9709 2.98797C27.8062 2.02794 26.9738 1.32617 25.9997 1.32617C25.0257 1.32617 24.1933 2.02794 24.0285 2.98797C23.8638 3.94799 24.4147 4.88709 25.333 5.21175V9.33439C25.333 9.70255 25.0346 10.0011 24.6663 10.0011H20.4904C20.261 9.5748 19.8033 9.32234 19.3204 9.35578C13.7025 9.71163 9.32812 14.3718 9.32812 20.001C9.32812 25.6302 13.7025 30.2904 19.3204 30.6463H19.3984C19.8538 30.6501 20.2741 30.4017 20.4904 30.0009H24.6663C25.0345 30.0009 25.333 30.2994 25.333 30.6676V34.7903C24.4147 35.1149 23.8638 36.054 24.0285 37.0141C24.1933 37.9741 25.0257 38.6759 25.9997 38.6759C26.9738 38.6759 27.8062 37.9741 27.9709 37.0141C28.1356 36.054 27.5848 35.1149 26.6664 34.7903V30.6676C26.6664 29.5631 25.771 28.6676 24.6664 28.6676H20.6664V27.3343H27.9997C28.3678 27.3343 28.6663 27.0358 28.6663 26.6677C28.6663 26.2995 28.3678 26.001 27.9997 26.001H20.6664V24.001H31.333C31.7012 24.001 31.9997 24.2995 31.9997 24.6677V28.1236C31.0813 28.4483 30.5305 29.3874 30.6952 30.3474C30.8599 31.3074 31.6924 32.0092 32.6664 32.0092C33.6404 32.0092 34.4728 31.3074 34.6376 30.3474C34.8023 29.3874 34.2515 28.4483 33.3331 28.1236V24.6677C33.3331 23.5631 32.4377 22.6677 31.3331 22.6677H20.6664V20.6676H36.1223C36.4629 21.624 37.467 22.1724 38.4559 21.9422C39.4447 21.712 40.1033 20.7764 39.9866 19.7679C39.8698 18.7595 39.0148 17.9992 37.9996 18.0009ZM32.6663 9.33439C33.0345 9.33439 33.333 9.63285 33.333 10.0011C33.333 10.3693 33.0345 10.6678 32.6663 10.6678C32.2982 10.6678 31.9997 10.3693 31.9997 10.0011C31.9997 9.63285 32.2981 9.33439 32.6663 9.33439ZM25.9997 2.66778C26.3679 2.66778 26.6664 2.96625 26.6664 3.33448C26.6664 3.70271 26.368 4.0011 25.9997 4.0011C25.6315 4.0011 25.3331 3.70264 25.3331 3.33448C25.3331 2.96632 25.6315 2.66778 25.9997 2.66778ZM25.9997 37.3341C25.6316 37.3341 25.3331 37.0356 25.3331 36.6674C25.3331 36.2992 25.6316 36.0007 25.9997 36.0007C26.3679 36.0007 26.6664 36.2992 26.6664 36.6674C26.6664 37.0356 26.3679 37.3341 25.9997 37.3341ZM32.6663 30.6675C32.2982 30.6675 31.9997 30.369 31.9997 30.0008C31.9997 29.6326 32.2982 29.3342 32.6663 29.3342C33.0345 29.3342 33.333 29.6327 33.333 30.0008C33.333 30.369 33.0345 30.6675 32.6663 30.6675ZM10.6665 20.0009C10.6721 15.1072 14.4523 11.0468 19.3331 10.6917V29.3102C14.4523 28.9551 10.6721 24.8946 10.6665 20.0009ZM37.9996 20.6676C37.6314 20.6676 37.3329 20.3691 37.3329 20.0009C37.3329 19.6327 37.6314 19.3343 37.9996 19.3343C38.3678 19.3343 38.6663 19.6327 38.6663 20.0009C38.6663 20.369 38.3678 20.6676 37.9996 20.6676Z" fill="#6653E8"/>
</g>
<defs>
<clipPath id="clip0_1845_10217">
<rect width="40" height="40" fill="white"/>
</clipPath>
</defs>
</svg>
