<svg width="40" height="40" viewBox="0 0 40 40" fill="none" xmlns="http://www.w3.org/2000/svg">
<g clip-path="url(#clip0_1844_10181)">
<path d="M35.3954 25.4113V14.5887C36.7417 14.2409 37.7391 13.016 37.7391 11.5626C37.7447 8.77276 34.3053 7.39373 32.3858 9.374L23.0115 3.96169C23.5803 2.01789 22.0323 -0.030971 20.0002 0.000356488C17.9685 -0.0310491 16.4196 2.01813 16.9891 3.96176L15.3721 4.89534C14.9984 5.11104 14.8704 5.58884 15.0861 5.96251C15.3031 6.33961 15.7863 6.46218 16.1533 6.24844L17.7719 5.31392C18.9336 6.55187 21.0672 6.55148 22.2286 5.31392L31.603 10.7262C31.1127 12.3837 32.2009 14.2009 33.833 14.5887V25.4113C32.2009 25.7991 31.1126 27.6166 31.603 29.2739L22.2286 34.6862C21.0668 33.4483 18.9333 33.4486 17.7718 34.6862L8.39737 29.2738C8.88767 27.6163 7.79949 25.7991 6.16741 25.4113V14.5887C7.79949 14.201 8.88775 12.3835 8.39737 10.7262L10.0633 9.76438C10.4369 9.54869 10.565 9.07088 10.3492 8.69722C10.1335 8.32348 9.65562 8.19551 9.28204 8.41129L7.61457 9.374C5.69398 7.39334 2.25585 8.77331 2.26132 11.5626C2.26132 13.016 3.25872 14.2409 4.60494 14.5887V25.4113C3.25864 25.7591 2.26124 26.9839 2.26124 28.4373C2.25569 31.2272 5.695 32.6063 7.61449 30.6259L16.989 36.0383C16.4201 37.9821 17.9681 40.031 20.0002 39.9997C22.0319 40.0311 23.5808 37.9819 23.0114 36.0382L32.3858 30.626C34.3065 32.6066 37.7445 31.2266 37.7391 28.4373C37.7391 26.9839 36.7417 25.7591 35.3954 25.4113ZM20.0002 4.68769C19.1386 4.68769 18.4377 3.98676 18.4377 3.12522C18.5163 1.05518 21.4844 1.0558 21.5627 3.12522C21.5627 3.98676 20.8617 4.68769 20.0002 4.68769ZM3.82371 11.5626C3.82371 10.7011 4.52463 10.0002 5.38618 10.0002C7.45614 10.0788 7.45559 13.0468 5.38618 13.1251C4.52463 13.1251 3.82371 12.4241 3.82371 11.5626ZM5.38618 29.9998C4.52463 29.9998 3.82371 29.2989 3.82371 28.4374C3.9023 26.3674 6.87037 26.368 6.94865 28.4374C6.94865 29.2988 6.24772 29.9998 5.38618 29.9998ZM20.0002 38.4372C19.1386 38.4372 18.4377 37.7363 18.4377 36.8747C18.5163 34.8047 21.4844 34.8053 21.5627 36.8747C21.5627 37.7363 20.8617 38.4372 20.0002 38.4372ZM33.0517 11.5626C33.0517 10.7011 33.7527 10.0002 34.6142 10.0002C36.6842 10.0787 36.6836 13.0468 34.6142 13.1251C33.7527 13.1251 33.0517 12.4241 33.0517 11.5626ZM34.6142 29.9998C33.7527 29.9998 33.0517 29.2989 33.0517 28.4374C33.1302 26.3674 36.0985 26.368 36.1767 28.4374C36.1767 29.2988 35.4757 29.9998 34.6142 29.9998Z" fill="#6653E8"/>
<path d="M9.84424 14.5882V25.4132C9.84424 25.6924 9.99314 25.9502 10.2349 26.0898L19.6097 31.5023C19.8514 31.6419 20.1491 31.6419 20.391 31.5023L29.7658 26.0898C30.0075 25.9502 30.1564 25.6924 30.1564 25.4132V14.5882C30.1564 14.3091 30.0075 14.0512 29.7658 13.9117L20.3909 8.49918C20.1492 8.35957 19.8514 8.35973 19.6097 8.49918L10.2349 13.9117C9.99314 14.0512 9.84424 14.3091 9.84424 14.5882ZM11.4067 15.9414L19.2191 20.4518V29.4728L11.4067 24.9623V15.9414ZM27.8127 14.5883L20.0003 19.0987L16.8754 17.2946L24.6877 12.7841L27.8127 14.5883ZM20.7815 29.4727V20.4518L28.5939 15.9414V24.9622L20.7815 29.4727ZM20.0003 10.0778L23.1252 11.882L15.3129 16.3925L12.1879 14.5883L20.0003 10.0778Z" fill="#6653E8"/>
<path d="M25.898 22.6106L23.1119 24.2191C22.7383 24.4348 22.6102 24.9126 22.826 25.2863C23.0429 25.6634 23.5262 25.786 23.8932 25.5722L26.6792 23.9637C27.0529 23.748 27.1809 23.2702 26.9652 22.8966C26.7496 22.523 26.272 22.3949 25.898 22.6106Z" fill="#6653E8"/>
<path d="M12.718 8.11133C13.7534 8.07289 13.7526 6.58687 12.718 6.54883H12.7174C11.6819 6.58734 11.6833 8.07344 12.718 8.11133Z" fill="#6653E8"/>
</g>
<defs>
<clipPath id="clip0_1844_10181">
<rect width="40" height="40" fill="white"/>
</clipPath>
</defs>
</svg>
