<svg width="106" height="82" viewBox="0 0 106 82" fill="none" xmlns="http://www.w3.org/2000/svg">
<path d="M77.6034 48.3693C78.5537 48.5064 79.5196 48.2604 80.2886 47.6854C81.0575 47.1104 81.5666 46.2535 81.7037 45.3031C81.8408 44.3528 81.5948 43.3869 81.0198 42.618C80.4448 41.849 79.5879 41.34 78.6375 41.2029C70.6703 40.0538 66.1307 35.4099 65.1434 27.4021C64.8357 25.0206 65.0024 22.6018 65.634 20.2851C66.3208 17.7494 67.6089 15.4167 69.3891 13.4848C71.1694 11.5528 73.3892 10.0786 75.8604 9.18723C79.6578 7.65115 83.8699 7.47691 87.7812 8.6941C98.5512 12.1112 98.2692 24.7523 98.2498 25.4187C98.2498 46.4903 78.4528 75.3752 78.253 75.6651C77.7069 76.4547 77.4967 77.429 77.6689 78.3736C77.841 79.3182 78.3813 80.1557 79.1709 80.7019C79.9606 81.2481 80.9349 81.4582 81.8794 81.2861C82.824 81.1139 83.6615 80.5736 84.2077 79.784C85.0766 78.5288 105.49 48.76 105.488 25.5618C105.744 19.1255 102.831 5.8727 89.9697 1.79276C87.5706 1.03442 85.0691 0.649841 82.5531 0.652542C79.3396 0.654747 76.156 1.2691 73.1725 2.46272C69.6747 3.77061 66.5367 5.88869 64.0156 8.64339C61.4944 11.3981 59.6618 14.711 58.6681 18.3106C57.7651 21.5545 57.5234 24.9468 57.9575 28.2859C58.3465 33.4097 60.5296 38.2323 64.1229 41.9055C67.7161 45.5788 72.4894 47.8675 77.6034 48.3693Z" fill="#0B59DB"/>
<path d="M0.707321 28.286C1.09635 33.4097 3.27943 38.2323 6.87267 41.9055C10.4659 45.5788 15.2392 47.8675 20.3532 48.3693C21.3035 48.5064 22.2694 48.2604 23.0383 47.6854C23.8073 47.1104 24.3163 46.2535 24.4534 45.3032C24.5906 44.3528 24.3446 43.3869 23.7696 42.618C23.1946 41.849 22.3376 41.34 21.3873 41.2029C13.4201 40.0538 8.8805 35.41 7.8932 27.4021C7.58558 25.0207 7.75199 22.602 8.38287 20.2851C9.0697 17.7493 10.3579 15.4165 12.1383 13.4845C13.9187 11.5526 16.1387 10.0785 18.6102 9.18724C22.4076 7.6512 26.6196 7.47697 30.5309 8.69411C41.3009 12.1112 41.019 24.7523 40.9995 25.4187C40.9995 46.4903 21.2017 75.3752 21.0019 75.6651C20.7315 76.0561 20.5407 76.4965 20.4405 76.9613C20.3402 77.426 20.3325 77.9059 20.4177 78.3736C20.503 78.8413 20.6795 79.2876 20.9372 79.6871C21.1949 80.0866 21.5288 80.4314 21.9198 80.7019C22.3108 80.9723 22.7512 81.1631 23.216 81.2633C23.6807 81.3636 24.1606 81.3713 24.6283 81.2861C25.096 81.2008 25.5423 81.0243 25.9418 80.7666C26.3413 80.5089 26.6861 80.175 26.9566 79.784C27.8254 78.5289 48.2402 48.7601 48.2376 25.5619C48.4939 19.1256 45.5807 5.87278 32.7194 1.79284C30.3204 1.03457 27.8189 0.650002 25.3028 0.652634C22.0894 0.654739 18.9058 1.26905 15.9223 2.46272C12.4242 3.77077 9.28581 5.8891 6.76434 8.64409C4.24287 11.3991 2.41009 14.7123 1.41618 18.3123C0.514694 21.5559 0.273643 24.9475 0.707321 28.286Z" fill="#0B59DB"/>
</svg>
