<svg width="50" height="50" viewBox="0 0 50 50" fill="none" xmlns="http://www.w3.org/2000/svg">
<path d="M11.7184 7.02931C11.7184 7.02931 10.5802 7.0188 9.41729 7.60025C8.25439 8.1817 7.02971 9.50443 7.02971 11.718V11.8794C6.76702 11.8341 6.51904 11.718 6.25115 11.718C3.67157 11.718 1.5625 13.827 1.5625 16.4066C1.5625 18.9862 3.67157 21.0953 6.25115 21.0953C6.5186 21.0953 6.76698 20.9736 7.02971 20.928V21.0953C7.02971 23.3088 8.25439 24.6258 9.41729 25.2072C10.5802 25.7887 11.7184 25.7782 11.7184 25.7782H11.8856C11.8394 26.0427 11.7184 26.2931 11.7184 26.5625C11.7184 29.1421 13.8274 31.2511 16.407 31.2511C18.9866 31.2511 21.0957 29.1421 21.0957 26.5625C21.0957 26.2927 20.9802 26.0427 20.9342 25.7782H21.0957C21.0957 25.7782 22.2338 25.7887 23.3967 25.2072C24.5596 24.6258 25.7786 23.3088 25.7786 21.0953H24.2157C24.2157 22.788 23.4891 23.4165 22.6989 23.8116C21.9087 24.2067 21.0957 24.2153 21.0957 24.2153H19.9884C19.858 24.2143 19.7295 24.246 19.6145 24.3075C19.4995 24.369 19.4017 24.4582 19.33 24.5672C19.2584 24.6761 19.2151 24.8012 19.2042 24.9311C19.1933 25.0611 19.215 25.1917 19.2675 25.311C19.4397 25.7053 19.5328 26.1324 19.5328 26.5625C19.5328 28.2976 18.1422 29.6883 16.407 29.6883C14.6719 29.6883 13.2812 28.2976 13.2812 26.5625C13.2812 26.1322 13.367 25.7088 13.5408 25.3168C13.5941 25.1981 13.6169 25.0679 13.6072 24.9381C13.5975 24.8083 13.5554 24.683 13.485 24.5736C13.4145 24.4641 13.3178 24.374 13.2037 24.3115C13.0895 24.2489 12.9616 24.2158 12.8314 24.2153H11.7184C11.7184 24.2153 10.9053 24.2067 10.1151 23.8116C9.32489 23.4165 8.5926 22.788 8.5926 21.0953V19.9822C8.59257 19.8523 8.56016 19.7245 8.4983 19.6103C8.43644 19.496 8.34707 19.3991 8.23829 19.3281C8.12951 19.2571 8.00475 19.2143 7.87529 19.2037C7.74583 19.193 7.61576 19.2148 7.49685 19.2671C7.10484 19.4408 6.68146 19.5324 6.25115 19.5324C4.51601 19.5324 3.12538 18.1418 3.12538 16.4066C3.12538 14.6715 4.51601 13.2808 6.25115 13.2808C6.68128 13.2808 7.10262 13.3682 7.49685 13.5404C7.61576 13.5926 7.74583 13.6144 7.87529 13.6038C8.00475 13.5932 8.12951 13.5504 8.23829 13.4794C8.34707 13.4084 8.43644 13.3114 8.4983 13.1972C8.56016 13.083 8.59257 12.9551 8.5926 12.8252V11.718C8.5926 10.0253 9.32489 9.39677 10.1151 9.00166C10.9053 8.60655 11.7184 8.59219 11.7184 8.59219H21.0957C21.0957 8.59219 21.9087 8.60654 22.6989 9.00166C23.4891 9.39677 24.2157 10.0253 24.2157 11.718H25.7786C25.7786 9.50443 24.5596 8.1817 23.3967 7.60025C22.2338 7.0188 21.0957 7.02931 21.0957 7.02931H11.7184Z" fill="#0B59DB"/>
<path d="M11.7179 24.2158C11.7179 24.2158 10.5798 24.2053 9.41688 24.7868C8.25398 25.3682 7.0293 26.691 7.0293 28.9045V38.2818C7.0293 40.4953 8.25398 41.8181 9.41688 42.3995C10.5798 42.981 11.7179 42.9704 11.7179 42.9704C11.7179 45.55 13.827 47.6533 16.4066 47.6533C18.9862 47.6533 21.0953 45.55 21.0953 42.9704C21.0953 42.9704 22.2334 42.9811 23.3963 42.3995C24.5592 41.8181 25.7781 40.4953 25.7781 38.2818V38.1145C26.0427 38.1608 26.2931 38.2818 26.5625 38.2818C29.142 38.2818 31.2511 36.1727 31.2511 33.5931C31.2511 31.0136 29.142 28.9045 26.5625 28.9045C26.2931 28.9045 26.0427 29.0255 25.7781 29.0717V28.9045C25.7781 26.691 24.5592 25.3682 23.3963 24.7868C22.2334 24.2053 21.0953 24.2158 21.0953 24.2158V25.7787C21.0953 25.7787 21.9083 25.7931 22.6985 26.1882C23.4887 26.5833 24.2153 27.2118 24.2153 28.9045V30.0175C24.2149 30.1482 24.2472 30.2768 24.3094 30.3918C24.3716 30.5067 24.4616 30.6041 24.5711 30.6753C24.6807 30.7464 24.8064 30.789 24.9366 30.799C25.0669 30.809 25.1976 30.7862 25.3168 30.7327C25.7088 30.5589 26.1322 30.4674 26.5625 30.4674C28.2976 30.4674 29.6882 31.858 29.6882 33.5932C29.6882 35.3283 28.2976 36.7189 26.5625 36.7189C26.1322 36.7189 25.7088 36.6274 25.3168 36.4536C25.1976 36.4001 25.0669 36.3773 24.9366 36.3873C24.8064 36.3973 24.6807 36.4399 24.5711 36.511C24.4615 36.5822 24.3716 36.6796 24.3094 36.7945C24.2472 36.9095 24.2149 37.0381 24.2153 37.1688V38.2818C24.2153 39.9745 23.4887 40.603 22.6985 40.9981C21.9083 41.3932 21.0953 41.4076 21.0953 41.4076H20.2302C20.1134 41.4071 19.9979 41.4328 19.8923 41.4829C19.7867 41.5329 19.6937 41.606 19.6201 41.6968C19.5466 41.7875 19.4942 41.8936 19.4671 42.0072C19.4399 42.1209 19.4386 42.2391 19.4632 42.3534C19.5065 42.5527 19.5324 42.7602 19.5324 42.9704C19.5324 44.7056 18.1417 46.0962 16.4066 46.0962C14.6715 46.0962 13.2808 44.7056 13.2808 42.9704C13.2808 42.7602 13.301 42.5527 13.3443 42.3534C13.3688 42.2396 13.3675 42.1218 13.3407 42.0086C13.3139 41.8954 13.2621 41.7896 13.1891 41.699C13.1162 41.6083 13.0239 41.5351 12.919 41.4847C12.8142 41.4343 12.6994 41.4079 12.583 41.4076H11.7179C11.7179 41.4076 10.9049 41.3931 10.1147 40.9981C9.32447 40.603 8.59218 39.9745 8.59218 38.2818V28.9045C8.59218 27.2118 9.32447 26.5833 10.1147 26.1882C10.9049 25.7931 11.7179 25.7787 11.7179 25.7787V24.2158Z" fill="#0B59DB"/>
<path d="M28.9042 24.2158C28.9042 24.2158 27.7661 24.2053 26.6032 24.7868C25.4403 25.3682 24.2156 26.691 24.2156 28.9045H25.7785C25.7785 27.2118 26.5108 26.5833 27.301 26.1882C28.0912 25.7931 28.9042 25.7787 28.9042 25.7787V24.2158Z" fill="#0B59DB"/>
<path d="M38.2815 24.2158V25.7787C38.2815 25.7787 39.0946 25.7931 39.8848 26.1882C40.675 26.5833 41.4073 27.2118 41.4073 28.9045V30.0175C41.4073 30.1474 41.4397 30.2753 41.5016 30.3895C41.5635 30.5037 41.6528 30.6007 41.7616 30.6717C41.8704 30.7427 41.9952 30.7854 42.1246 30.7961C42.2541 30.8067 42.3841 30.7849 42.5031 30.7327C42.8951 30.5589 43.3184 30.4674 43.7487 30.4674C45.4839 30.4674 46.8745 31.858 46.8745 33.5932C46.8745 35.3283 45.4839 36.7189 43.7487 36.7189C43.3184 36.7189 42.895 36.6274 42.5031 36.4536C42.3841 36.4014 42.2541 36.3796 42.1246 36.3902C41.9952 36.4009 41.8704 36.4436 41.7616 36.5146C41.6528 36.5856 41.5635 36.6826 41.5016 36.7968C41.4397 36.911 41.4073 37.0389 41.4073 37.1688V38.2818C41.4073 39.9745 40.675 40.603 39.8848 40.9981C39.0946 41.3932 38.2815 41.4076 38.2815 41.4076H28.9042C28.9042 41.4076 28.0912 41.3931 27.301 40.9981C26.5108 40.603 25.7785 39.9745 25.7785 38.2818H24.2156C24.2156 40.4954 25.4403 41.8181 26.6032 42.3995C27.7661 42.981 28.9042 42.9705 28.9042 42.9705H38.2815C38.2815 42.9705 39.4197 42.9811 40.5826 42.3995C41.7455 41.8181 42.9702 40.4954 42.9702 38.2818V38.1146C43.2329 38.1601 43.4813 38.2818 43.7487 38.2818C46.3283 38.2818 48.4374 36.1727 48.4374 33.5932C48.4374 31.0136 46.3283 28.9045 43.7487 28.9045C43.4813 28.9045 43.2329 29.0262 42.9702 29.0718V28.9045C42.9702 26.691 41.7455 25.3683 40.5826 24.7868C39.4197 24.2053 38.2815 24.2158 38.2815 24.2158Z" fill="#0B59DB"/>
<path d="M33.5934 1.5625C31.0138 1.5625 28.9047 3.67157 28.9047 6.25115C28.9047 6.5186 29.0264 6.76698 29.072 7.02971H28.9047C28.9047 7.02971 27.7666 7.0192 26.6037 7.60065C25.4408 8.18211 24.2161 9.50484 24.2161 11.7184C21.6365 11.7184 19.5332 13.8274 19.5332 16.407C19.5332 18.9866 21.6365 21.0957 24.2161 21.0957C24.2161 23.3092 25.4408 24.6262 26.6037 25.2076C27.7666 25.7891 28.9047 25.7786 28.9047 25.7786L30.0178 25.7843C30.1484 25.7847 30.2771 25.7524 30.392 25.6902C30.5069 25.628 30.6044 25.538 30.6755 25.4284C30.7467 25.3189 30.7892 25.1932 30.7992 25.0629C30.8093 24.9327 30.7865 24.802 30.7329 24.6828C30.5596 24.2909 30.4676 23.8678 30.4676 23.4371C30.4676 21.702 31.8583 20.3113 33.5934 20.3113C35.3285 20.3113 36.7192 21.702 36.7192 23.4371C36.7192 23.8678 36.6272 24.2909 36.4539 24.6828C36.4004 24.802 36.3776 24.9327 36.3876 25.0629C36.3976 25.1932 36.4401 25.3189 36.5113 25.4285C36.5824 25.538 36.6799 25.628 36.7948 25.6902C36.9097 25.7524 37.0384 25.7847 37.169 25.7843L38.2821 25.7786C38.2821 25.7786 39.4202 25.7891 40.5831 25.2076C41.746 24.6262 42.9707 23.3092 42.9707 21.0957V11.7184C42.9707 9.50484 41.746 8.18211 40.5831 7.60065C39.4202 7.0192 38.282 7.02971 38.282 7.02971H38.1148C38.1604 6.76698 38.282 6.51861 38.282 6.25115C38.282 3.67157 36.173 1.5625 33.5934 1.5625ZM33.5934 3.12538C35.3285 3.12538 36.7192 4.51601 36.7192 6.25115C36.7192 6.68146 36.6276 7.10484 36.4539 7.49685C36.4016 7.61576 36.3798 7.74583 36.3905 7.87529C36.4011 8.00475 36.4439 8.12951 36.5149 8.23829C36.5858 8.34707 36.6828 8.43644 36.7971 8.4983C36.9113 8.56016 37.0391 8.59257 37.169 8.5926H38.2821C38.2821 8.5926 39.0951 8.60119 39.8853 8.99629C40.6755 9.39141 41.4078 10.0257 41.4078 11.7184V21.0957C41.4078 22.7884 40.6755 23.4169 39.8853 23.812C39.0951 24.2071 38.2821 24.2157 38.2821 24.2157H38.1148C38.1603 23.9529 38.2821 23.7048 38.2821 23.4371C38.2821 20.8575 36.173 18.7485 33.5934 18.7485C31.0138 18.7485 28.9048 20.8575 28.9048 23.4371C28.9048 23.7048 29.0265 23.9529 29.072 24.2157H28.9048C28.9048 24.2157 28.0917 24.2071 27.3015 23.812C26.5113 23.4169 25.779 22.7884 25.779 21.0957V20.2306C25.7791 20.115 25.7535 20.0007 25.7042 19.8962C25.6548 19.7916 25.5828 19.6993 25.4934 19.6259C25.404 19.5525 25.2995 19.4999 25.1873 19.4718C25.0751 19.4438 24.9581 19.4409 24.8447 19.4636C24.6391 19.5061 24.4261 19.5323 24.2161 19.5328C22.481 19.5328 21.0961 18.1422 21.0961 16.407C21.0961 14.6719 22.481 13.2812 24.2161 13.2812C24.426 13.2814 24.639 13.3026 24.8447 13.3447C24.9581 13.3673 25.0751 13.3645 25.1873 13.3364C25.2995 13.3084 25.404 13.2557 25.4934 13.1824C25.5828 13.109 25.6548 13.0167 25.7042 12.9121C25.7535 12.8075 25.7791 12.6933 25.779 12.5777V11.7184C25.779 10.0257 26.5113 9.39141 27.3015 8.99629C28.0917 8.60118 28.9047 8.5926 28.9047 8.5926H30.0178C30.1477 8.59257 30.2755 8.56016 30.3897 8.4983C30.504 8.43643 30.601 8.34707 30.672 8.23829C30.7429 8.12951 30.7857 8.00475 30.7963 7.87529C30.807 7.74583 30.7852 7.61576 30.7329 7.49685C30.5592 7.10484 30.4676 6.68146 30.4676 6.25115C30.4676 4.51601 31.8583 3.12538 33.5934 3.12538Z" fill="#0B59DB"/>
</svg>
