<svg width="40" height="40" viewBox="0 0 40 40" fill="none" xmlns="http://www.w3.org/2000/svg">
<path d="M3.87097 40C5.31097 40 6.56774 39.2077 7.23419 38.0381C9.30194 37.909 11.8768 37.0361 14.7303 35.4839H14.8832C15.2026 38.0258 17.3729 40 20 40C22.6271 40 24.7974 38.0258 25.1168 35.4839H25.2697C28.3994 37.1858 31.1484 38.0542 33.2929 38.0542C34.7761 38.0542 35.9716 37.6406 36.8064 36.8058C38.7277 34.8845 38.4452 31.1703 36.0316 26.3226C36.4897 25.8574 36.7742 25.22 36.7742 24.5161C36.7742 23.0929 35.6168 21.9355 34.1935 21.9355C33.9561 21.9355 33.7303 21.9781 33.5116 22.0387C33.0568 21.3626 32.5755 20.6832 32.0658 20.0026C35.6903 15.1632 37.8348 10.5813 38.0413 7.23226C39.2097 6.56516 40 5.30968 40 3.87097C40 1.73613 38.2639 0 36.129 0C34.6877 0 33.4303 0.792903 32.7645 1.96452C31.4877 2.04258 30.0452 2.39871 28.4865 3.00323C26.1619 1.12839 23.2116 0 20 0C16.7839 0 13.8297 1.13097 11.5039 3.01032C7.83613 1.59742 4.83484 1.5529 3.19355 3.19355C1.27226 5.11484 1.55484 8.82903 3.96839 13.6768C3.51032 14.1426 3.22581 14.78 3.22581 15.4839C3.22581 16.9071 4.38323 18.0645 5.80645 18.0645C6.27355 18.0645 6.71871 17.9381 7.10645 17.7116C7.34774 18.4645 7.65161 19.1916 8.01742 19.8852C4.40065 24.6819 2.17484 29.329 1.96452 32.7645C0.792903 33.4303 0 34.6877 0 36.129C0 38.2639 1.73613 40 3.87097 40ZM14.4845 24.4987C12.4116 23.4529 10.731 21.8852 9.56581 20C11.0116 18.14 12.6535 16.2684 14.4613 14.4606C16.2729 12.649 18.1497 11.0032 20.0135 9.55484C21.8142 10.9594 23.671 12.5923 25.5394 14.4606C27.3213 16.2426 28.9761 18.1155 30.4387 19.9942C30.4174 20.029 30.3929 20.0619 30.371 20.0961C30.3658 20.1026 30.3613 20.109 30.3561 20.1155L30.3574 20.1168C29.1955 21.9484 27.5452 23.4742 25.5168 24.4981C25.2981 24.6084 25.1613 24.831 25.1613 25.0742V27.0968H22.5806V17.6865L24.3271 15.94L23.4148 15.0277L21.4794 16.9632C21.3581 17.0839 21.2903 17.2484 21.2903 17.4194V27.0968H18.7097V17.4194C18.7097 17.2484 18.6419 17.0839 18.5206 16.9632L16.5852 15.0277L15.6729 15.94L17.4194 17.6865V27.0968H14.8387V25.0742C14.8387 24.831 14.7019 24.6084 14.4845 24.4987ZM32.2581 13.5484C32.2581 15.3903 31.8477 17.1574 31.1013 18.7542C29.6942 16.9839 28.1284 15.2258 26.4516 13.5484C24.6703 11.7671 22.8613 10.1613 21.0735 8.75032C23.5755 6.90645 26.0265 5.44839 28.2374 4.49613C30.7 6.74 32.2581 9.96194 32.2581 13.5484ZM26.4516 28.3871L26.4523 29.6774H13.5484V28.3871H26.4516ZM25.1613 30.9677V31.6129H14.8387V30.9677H25.1613ZM26.4516 32.9032L26.4523 34.1935H13.5484V32.9032H26.4516ZM20 38.7097C18.0858 38.7097 16.4961 37.3116 16.1871 35.4839H23.8129C23.5039 37.3116 21.9142 38.7097 20 38.7097ZM35.4839 24.5161C35.4839 25.2277 34.9052 25.8064 34.1935 25.8064C33.4819 25.8064 32.9032 25.2277 32.9032 24.5161C32.9032 23.8045 33.4819 23.2258 34.1935 23.2258C34.9052 23.2258 35.4839 23.8045 35.4839 24.5161ZM34.1935 27.0968C34.4464 27.0968 34.6865 27.049 34.9181 26.9806C36.9671 31.1374 37.34 34.4477 35.8942 35.8942C34.4787 37.309 31.351 37 27.3639 35.1058C27.5974 34.8716 27.7419 34.549 27.7419 34.1935V32.9032C27.7419 32.1916 27.1632 31.6129 26.4516 31.6129V30.9677C27.1632 30.9677 27.7419 30.389 27.7419 29.6774V28.3871C27.7419 27.6755 27.1632 27.0968 26.4516 27.0968V25.4652C28.431 24.3935 30.0645 22.8813 31.2658 21.0865C31.6581 21.6187 32.0297 22.1497 32.3865 22.6781C31.9103 23.1465 31.6129 23.7968 31.6129 24.5161C31.6129 25.9394 32.7703 27.0968 34.1935 27.0968ZM36.129 1.29032C37.5523 1.29032 38.7097 2.44774 38.7097 3.87097C38.7097 5.29419 37.5523 6.45161 36.129 6.45161C34.7058 6.45161 33.5484 5.29419 33.5484 3.87097C33.5484 2.44774 34.7058 1.29032 36.129 1.29032ZM36.129 7.74194C36.3245 7.74194 36.5148 7.72258 36.7026 7.69484C36.4206 9.91806 35.2394 12.7613 33.351 15.8284C33.4761 15.0832 33.5484 14.3226 33.5484 13.5484C33.5484 9.81419 32.0297 6.42839 29.5781 3.97548C30.5523 3.63355 31.471 3.39548 32.3058 3.29097C32.2774 3.48064 32.2581 3.67355 32.2581 3.87097C32.2581 6.00581 33.9942 7.74194 36.129 7.74194ZM20 1.29032C22.6535 1.29032 25.1052 2.14645 27.1135 3.58516C24.8781 4.61161 22.4613 6.08387 20.0006 7.92903C17.5194 6.07097 15.1013 4.60516 12.8794 3.59032C14.889 2.14839 17.3439 1.29032 20 1.29032ZM4.10581 4.10581C5.22 2.99161 7.47806 2.95742 10.4187 3.97871C8.08968 6.31032 6.62 9.48839 6.47935 13.0032C6.26064 12.9439 6.03677 12.9032 5.80645 12.9032C5.55355 12.9032 5.31355 12.951 5.08194 13.0194C3.0329 8.86258 2.65935 5.55226 4.10581 4.10581ZM5.80645 16.7742C5.09484 16.7742 4.51613 16.1955 4.51613 15.4839C4.51613 14.7723 5.09484 14.1935 5.80645 14.1935C6.04645 14.1935 6.27871 14.26 6.48 14.3832C6.52064 15.0542 6.60839 15.7142 6.74387 16.3594C6.50194 16.6187 6.16903 16.7742 5.80645 16.7742ZM7.74194 13.5484C7.74194 9.96323 9.29871 6.74258 11.7606 4.49935C13.9123 5.41548 16.3548 6.83226 18.9413 8.74194C17.1348 10.1665 15.3187 11.7787 13.5484 13.5484C11.8419 15.2548 10.2826 17.0052 8.89548 18.7477C8.15097 17.1529 7.74194 15.3877 7.74194 13.5484ZM8.73742 21.0916C9.93871 22.8839 11.571 24.3948 13.5484 25.4652V27.0968C12.8368 27.0968 12.2581 27.6755 12.2581 28.3871V29.6774C12.2581 30.389 12.8368 30.9677 13.5484 30.9677V31.6129C12.8368 31.6129 12.2581 32.1916 12.2581 32.9032V34.1935C12.2581 34.5477 12.4019 34.869 12.6335 35.1026C10.7858 35.9806 9.11097 36.5265 7.69419 36.7045C7.72258 36.5161 7.74194 36.3252 7.74194 36.129C7.74194 33.9942 6.00581 32.2581 3.87097 32.2581C3.67355 32.2581 3.48064 32.2774 3.29097 32.3064C3.6671 29.3 5.66323 25.2658 8.73742 21.0916ZM3.87097 33.5484C5.29419 33.5484 6.45161 34.7058 6.45161 36.129C6.45161 37.5523 5.29419 38.7097 3.87097 38.7097C2.44774 38.7097 1.29032 37.5523 1.29032 36.129C1.29032 34.7058 2.44774 33.5484 3.87097 33.5484Z" fill="#6653E8"/>
</svg>
