<svg width="40" height="40" viewBox="0 0 40 40" fill="none" xmlns="http://www.w3.org/2000/svg">
<path d="M30.0001 0H3.33335C1.49334 0.00216667 0.00216669 1.49334 2.02499e-08 3.33335V24.6668C-0.000166647 26.1872 1.0285 27.5149 2.50068 27.8948L2.83401 26.6041C1.95042 26.3763 1.333 25.5793 1.33334 24.6668V3.33335C1.33334 2.22876 2.22876 1.33334 3.33335 1.33334H30.0001C31.1047 1.33334 32.0001 2.22876 32.0001 3.33335V4.00001H33.3335V3.33335C33.3313 1.49334 31.8401 0.00216667 30.0001 0Z" fill="#6653E8"/>
<path d="M3.99984 2.66699H2.6665V4.00033H3.99984V2.66699Z" fill="#6653E8"/>
<path d="M6.66683 2.66699H5.3335V4.00033H6.66683V2.66699Z" fill="#6653E8"/>
<path d="M9.33334 2.66699H8V4.00033H9.33334V2.66699Z" fill="#6653E8"/>
<path d="M39.138 36.8624L32.8146 30.5391C33.1468 29.9461 33.4124 29.3183 33.6066 28.6671H34.6666V27.3337H33.8933C34.1444 25.72 33.9508 24.0683 33.3333 22.5564V16.0003H31.9999V20.2457C31.604 19.7399 31.1573 19.2762 30.6666 18.8617V13.3337H29.3333V17.9297C28.9065 17.6824 28.4606 17.4694 27.9999 17.293V10.667H26.6666V16.8883C26.2272 16.7935 25.7817 16.7309 25.3332 16.701V12.0003H23.9999V16.701C23.5515 16.7309 23.1059 16.7935 22.6666 16.8883V14.667H21.3332V17.293C20.8726 17.4694 20.4267 17.6824 19.9999 17.9297V14.0003H18.6665V18.8617C18.1759 19.2762 17.7291 19.7399 17.3332 20.2457V15.3337H15.9999V22.5564C15.3824 24.0683 15.1888 25.72 15.4399 27.3337H6.6665V28.6671H15.7265C17.1887 33.5989 22.3721 36.4116 27.3038 34.9494C28.2757 34.6612 29.194 34.2164 30.0226 33.6324L36.1953 39.8051C36.4556 40.0653 36.8776 40.0653 37.138 39.8051L39.138 37.8051C39.3982 37.5448 39.3982 37.1228 39.138 36.8624ZM24.6666 34.0004C20.2502 33.9957 16.6713 30.4167 16.6665 26.0004C16.6665 21.5821 20.2483 18.0004 24.6666 18.0004C29.0848 18.0004 32.6666 21.5821 32.6666 26.0004C32.6666 30.4186 29.0848 34.0004 24.6666 34.0004ZM36.6666 38.3911L31.0586 32.7831C31.4219 32.4397 31.7574 32.0682 32.0619 31.6717L37.724 37.3338L36.6666 38.3911Z" fill="#6653E8"/>
<path d="M24.6667 19.333C20.9848 19.333 18 22.3178 18 25.9997C18 29.6816 20.9848 32.6664 24.6667 32.6664C28.3486 32.6664 31.3334 29.6816 31.3334 25.9997C31.3294 22.3194 28.347 19.337 24.6667 19.333ZM24.6667 31.3331C22.7637 31.3306 21.0062 30.3144 20.0547 28.6664H29.2787C28.3272 30.3144 26.5697 31.3306 24.6667 31.3331ZM19.5087 27.333C18.9723 25.303 19.6885 23.148 21.3333 21.843V25.9997H22.6667V21.059C23.0942 20.886 23.5424 20.7695 24 20.7123V25.9997H25.3334V20.7123C25.7909 20.7695 26.2392 20.886 26.6667 21.059V25.9997H28V21.843C29.6449 23.148 30.3611 25.303 29.8247 27.333H19.5087Z" fill="#6653E8"/>
<path d="M34.0001 5.33301H7.33335C5.49334 5.33517 4.00217 6.82635 4 8.66635V29.9998C4.00217 31.8398 5.49334 33.3309 7.33335 33.3331H16V31.9998H7.33335C6.22876 31.9998 5.33334 31.1044 5.33334 29.9998V8.66635C5.33334 7.56177 6.22876 6.66635 7.33335 6.66635H34.0001C35.1047 6.66635 36.0001 7.56177 36.0001 8.66635V29.9998C36 30.4868 35.8223 30.9571 35.5001 31.3224L36.5001 32.2044C37.0375 31.5958 37.3338 30.8117 37.3335 29.9998V8.66635C37.3313 6.82635 35.8401 5.33517 34.0001 5.33301Z" fill="#6653E8"/>
<path d="M7.99984 8H6.6665V9.33334H7.99984V8Z" fill="#6653E8"/>
<path d="M10.6668 8H9.3335V9.33334H10.6668V8Z" fill="#6653E8"/>
<path d="M13.3333 8H12V9.33334H13.3333V8Z" fill="#6653E8"/>
<path d="M9.33334 22H8V26H9.33334V22Z" fill="#6653E8"/>
<path d="M11.9998 18H10.6665V26H11.9998V18Z" fill="#6653E8"/>
<path d="M14.6668 20H13.3335V26H14.6668V20Z" fill="#6653E8"/>
</svg>
