<svg width="40" height="40" viewBox="0 0 40 40" fill="none" xmlns="http://www.w3.org/2000/svg">
<path d="M38.0645 14.1934H26.4516C25.3845 14.1934 24.5161 15.0617 24.5161 16.1288V23.8708C24.5161 24.9379 25.3845 25.8063 26.4516 25.8063H29.6774V27.0966H28.3871V28.3869H31.6129V31.6127C31.6129 31.9682 31.3232 32.2579 30.9677 32.2579H27.0665C26.8 29.3488 24.749 26.8747 21.9355 26.0779V25.1611C21.9355 24.094 21.0671 23.2256 20 23.2256C18.9329 23.2256 18.0645 24.094 18.0645 25.1611V26.0779C15.251 26.8747 13.2 29.3495 12.9335 32.2579H8.3871C8.03161 32.2579 7.74194 31.9682 7.74194 31.6127V30.9347C11.3535 30.6076 14.1935 27.5663 14.1935 23.8708C14.1935 19.9579 11.0097 16.774 7.09677 16.774C3.18387 16.774 0 19.9579 0 23.8708C0 27.5663 2.84 30.6076 6.45161 30.9347V31.6127C6.45161 32.6798 7.32 33.5482 8.3871 33.5482H12.9361C13.2632 37.1598 16.3045 39.9998 20 39.9998C23.6955 39.9998 26.7368 37.1598 27.0639 33.5482H30.9677C32.0348 33.5482 32.9032 32.6798 32.9032 31.6127V28.3869H36.129V27.0966H34.8387V25.8063H38.0645C39.1316 25.8063 40 24.9379 40 23.8708V16.1288C40 15.0617 39.1316 14.1934 38.0645 14.1934ZM1.29032 23.8708C1.29032 20.6695 3.89548 18.0643 7.09677 18.0643C10.2981 18.0643 12.9032 20.6695 12.9032 23.8708C12.9032 27.0721 10.2981 29.6772 7.09677 29.6772C3.89548 29.6772 1.29032 27.0721 1.29032 23.8708ZM20 33.5482C21.0671 33.5482 21.9355 32.6798 21.9355 31.6127V30.3288C22.7316 30.9276 23.2258 31.8746 23.2258 32.903C23.2258 34.6817 21.7787 36.1288 20 36.1288C18.2213 36.1288 16.7742 34.6817 16.7742 32.903C16.7742 31.8746 17.2684 30.9276 18.0645 30.3288V31.6127C18.0645 32.6798 18.9329 33.5482 20 33.5482ZM19.3548 25.1611C19.3548 24.8056 19.6445 24.5159 20 24.5159C20.3555 24.5159 20.6452 24.8056 20.6452 25.1611V31.6127C20.6452 31.9682 20.3555 32.2579 20 32.2579C19.6445 32.2579 19.3548 31.9682 19.3548 31.6127V25.1611ZM20 38.7095C16.7987 38.7095 14.1935 36.1043 14.1935 32.903C14.1935 30.425 15.7819 28.2417 18.0645 27.4334V28.8405C16.5077 29.583 15.4839 31.1546 15.4839 32.9037C15.4839 35.394 17.5097 37.4198 20 37.4198C22.4903 37.4198 24.5161 35.394 24.5161 32.9037C24.5161 31.1553 23.4923 29.583 21.9355 28.8405V27.4334C24.2181 28.2417 25.8064 30.425 25.8064 32.903C25.8064 36.1043 23.2013 38.7095 20 38.7095ZM26.4516 15.4837H38.0645C38.42 15.4837 38.7097 15.7734 38.7097 16.1288V21.9353H25.8064V16.1288C25.8064 15.7734 26.0961 15.4837 26.4516 15.4837ZM33.5484 27.0966H30.9677V25.8063H33.5484V27.0966ZM38.0645 24.5159H26.4516C26.0961 24.5159 25.8064 24.2263 25.8064 23.8708V23.2256H38.7097V23.8708C38.7097 24.2263 38.42 24.5159 38.0645 24.5159Z" fill="#6653E8"/>
<path d="M1.93548 15.4839H8.3871C9.45419 15.4839 10.3226 14.6155 10.3226 13.5484V8.3871H16.7742C17.1297 8.3871 17.4194 8.67677 17.4194 9.03226V17.4194H18.7097V9.03226C18.7097 7.96516 17.8413 7.09677 16.7742 7.09677H10.3226V1.93548C10.3226 0.868387 9.45419 0 8.3871 0H1.93548C0.868387 0 0 0.868387 0 1.93548V13.5484C0 14.6155 0.868387 15.4839 1.93548 15.4839ZM8.3871 14.1935H1.93548C1.58 14.1935 1.29032 13.9039 1.29032 13.5484V12.9032H9.03226V13.5484C9.03226 13.9039 8.74258 14.1935 8.3871 14.1935ZM1.29032 11.6129V3.87097H9.03226V11.6129H1.29032ZM1.93548 1.29032H8.3871C8.74258 1.29032 9.03226 1.58 9.03226 1.93548V2.58065H1.29032V1.93548C1.29032 1.58 1.58 1.29032 1.93548 1.29032Z" fill="#6653E8"/>
<path d="M9.0321 26.4521C9.0321 25.385 8.16371 24.5166 7.09662 24.5166C6.02952 24.5166 5.16113 25.385 5.16113 26.4521C5.16113 27.5192 6.02952 28.3876 7.09662 28.3876C8.16371 28.3876 9.0321 27.5192 9.0321 26.4521ZM6.45146 26.4521C6.45146 26.0966 6.74113 25.8069 7.09662 25.8069C7.4521 25.8069 7.74178 26.0966 7.74178 26.4521C7.74178 26.8076 7.4521 27.0972 7.09662 27.0972C6.74113 27.0972 6.45146 26.8076 6.45146 26.4521Z" fill="#6653E8"/>
<path d="M9.378 24.1702L10.2903 23.258C8.52961 21.4973 5.66445 21.4973 3.90381 23.258L4.81607 24.1702C6.07349 22.9128 8.11994 22.9128 9.378 24.1702Z" fill="#6653E8"/>
<path d="M11.2026 22.346L12.1149 21.4337C9.3478 18.6666 4.84522 18.6666 2.07812 21.4337L2.99038 22.346C5.25554 20.0821 8.93812 20.0821 11.2026 22.346Z" fill="#6653E8"/>
<path d="M17.4194 21.29H18.7098V22.5804H17.4194V21.29Z" fill="#6653E8"/>
<path d="M17.4194 18.71H18.7098V20.0003H17.4194V18.71Z" fill="#6653E8"/>
<path d="M21.2905 21.29H22.5808V22.5804H21.2905V21.29Z" fill="#6653E8"/>
<path d="M21.2905 18.71H22.5808V20.0003H21.2905V18.71Z" fill="#6653E8"/>
<path d="M22.5808 7.74194C22.5808 7.38645 22.8705 7.09677 23.226 7.09677H27.1299C27.4544 10.3523 30.2092 12.9032 33.5486 12.9032C37.106 12.9032 40.0002 10.009 40.0002 6.45161C40.0002 2.89419 37.106 0 33.5486 0C30.2086 0 27.4544 2.55097 27.1299 5.80645H23.226C22.1589 5.80645 21.2905 6.67484 21.2905 7.74194V17.4194H22.5808V7.74194ZM33.5486 1.29032C33.7505 1.29032 34.1828 1.95032 34.4918 3.22581H32.6054C32.9144 1.95032 33.3467 1.29032 33.5486 1.29032ZM34.7221 4.51613C34.7718 4.91226 34.8086 5.34 34.826 5.80645H32.2699C32.2873 5.34 32.3247 4.91226 32.3738 4.51613H34.7221ZM33.5486 11.6129C33.3467 11.6129 32.9144 10.9529 32.6054 9.67742H34.4918C34.1828 10.9529 33.7505 11.6129 33.5486 11.6129ZM32.375 8.3871C32.3254 7.99097 32.2886 7.56323 32.2712 7.09677H34.8273C34.8099 7.56323 34.7725 7.99097 34.7234 8.3871H32.375ZM36.117 7.09677H38.6654C38.6086 7.5471 38.4957 7.98 38.3299 8.3871H36.0209C36.0686 7.96323 36.1015 7.53097 36.117 7.09677ZM38.6654 5.80645H36.117C36.1015 5.37226 36.0686 4.94 36.0209 4.51613H38.3299C38.495 4.92323 38.6086 5.35613 38.6654 5.80645ZM30.9802 5.80645H28.4318C28.4886 5.35613 28.6015 4.92323 28.7673 4.51613H31.0763C31.0286 4.94 30.9957 5.37226 30.9802 5.80645ZM30.9802 7.09677C30.9957 7.53097 31.0286 7.96323 31.0763 8.3871H28.7673C28.6021 7.98 28.4886 7.5471 28.4318 7.09677H30.9802ZM29.526 9.67742H31.2802C31.4041 10.2703 31.5641 10.82 31.7654 11.289C30.8796 10.9613 30.1073 10.4006 29.526 9.67742ZM35.3318 11.289C35.5331 10.82 35.6931 10.2703 35.817 9.67742H37.5712C36.9899 10.4006 36.2176 10.9613 35.3318 11.289ZM37.5712 3.22581H35.817C35.6931 2.6329 35.5331 2.08323 35.3318 1.61419C36.2176 1.94194 36.9899 2.50258 37.5712 3.22581ZM31.7654 1.61419C31.5641 2.08323 31.4047 2.6329 31.2802 3.22581H29.526C30.1073 2.50258 30.8796 1.94194 31.7654 1.61419Z" fill="#6653E8"/>
</svg>
