<svg width="40" height="40" viewBox="0 0 40 40" fill="none" xmlns="http://www.w3.org/2000/svg">
<path d="M38.0645 33.5483H37.4193V12.258C37.4193 10.4793 35.9722 9.03223 34.1935 9.03223H32.258V10.3225H34.1935C35.2606 10.3225 36.129 11.1909 36.129 12.258V33.5483H3.87097V12.258C3.87097 11.1909 4.73935 10.3225 5.80645 10.3225H7.74193V9.03223H5.80645C4.02774 9.03223 2.58064 10.4793 2.58064 12.258V33.5483H1.93548C0.868387 33.5483 0 34.4167 0 35.4838C0 37.9735 2.02645 39.9999 4.51613 39.9999H35.4838C37.9735 39.9999 40 37.9735 40 35.4838C40 34.4167 39.1316 33.5483 38.0645 33.5483ZM16.129 34.8387H23.871V35.4838C23.871 35.8399 23.5819 36.129 23.2258 36.129H16.7742C16.4181 36.129 16.129 35.8399 16.129 35.4838V34.8387ZM29.6774 38.7096H28.3871V37.4193H29.6774V38.7096ZM34.8387 38.7096H33.5484V37.4193H34.8387V38.7096ZM36.129 38.6445V36.129H32.258V38.7096H30.9677V36.129H27.0968V38.7096H4.51613C2.73742 38.7096 1.29032 37.2625 1.29032 35.4838C1.29032 35.1277 1.57935 34.8387 1.93548 34.8387H14.8387V35.4838C14.8387 36.5509 15.7071 37.4193 16.7742 37.4193H23.2258C24.2929 37.4193 25.1613 36.5509 25.1613 35.4838V34.8387H38.0645C38.4206 34.8387 38.7097 35.1277 38.7097 35.4838C38.7097 37.0412 37.5993 38.3445 36.129 38.6445Z" fill="#6653E8"/>
<path d="M14.1934 12.9036V11.6133H6.45145C5.73984 11.6133 5.16113 12.192 5.16113 12.9036V30.9681C5.16113 31.6797 5.73984 32.2584 6.45145 32.2584H33.5482C34.2598 32.2584 34.8385 31.6797 34.8385 30.9681V12.9036C34.8385 12.192 34.2598 11.6133 33.5482 11.6133H25.8063V12.9036H33.5482V30.9681H30.9676V27.272L29.2037 26.7068C29.0431 26.2081 28.8443 25.7262 28.6108 25.2688L29.4572 23.6242L26.0547 20.2217L24.4102 21.0681C23.9521 20.8346 23.4708 20.6359 22.9721 20.4752L22.4056 18.7101H17.5934L17.0282 20.4739C16.5295 20.6346 16.0476 20.8333 15.5902 21.0668L13.9456 20.2204L10.5431 23.623L11.3895 25.2675C11.156 25.7255 10.9573 26.2068 10.7966 26.7055L9.0321 27.272V30.9681H6.45145V12.9036H14.1934ZM14.1934 29.6778C14.1934 26.4759 16.7979 23.8713 19.9998 23.8713C23.2018 23.8713 25.8063 26.4759 25.8063 29.6778C25.8063 30.1158 25.7418 30.5455 25.6456 30.9681H22.954C23.1302 30.5649 23.2256 30.1268 23.2256 29.6778C23.2256 27.8991 21.7785 26.452 19.9998 26.452C18.2211 26.452 16.774 27.8991 16.774 29.6778C16.774 30.1268 16.8695 30.5649 17.0456 30.9681H14.3547C14.2585 30.5455 14.1934 30.1158 14.1934 29.6778ZM18.0644 29.6778C18.0644 28.6107 18.9327 27.7423 19.9998 27.7423C21.0669 27.7423 21.9353 28.6107 21.9353 29.6778C21.9353 30.1591 21.7469 30.6139 21.4269 30.9681H18.5721C18.2527 30.6139 18.0644 30.1591 18.0644 29.6778ZM10.3224 28.2126L11.8424 27.7262L11.9366 27.3926C12.1166 26.7552 12.3669 26.1475 12.6805 25.5881L12.8495 25.2855L12.1205 23.87L14.1927 21.7978L15.6082 22.5268L15.9108 22.3578C16.4702 22.0442 17.0779 21.7939 17.7153 21.6139L18.0489 21.5197L18.5347 20.0004H21.4643L21.9508 21.5204L22.2843 21.6146C22.9218 21.7946 23.5295 22.0449 24.0889 22.3584L24.3914 22.5275L25.8069 21.7984L27.8792 23.8707L27.1502 25.2862L27.3192 25.5888C27.6327 26.1481 27.8831 26.7558 28.0631 27.3933L28.1572 27.7268L29.6772 28.2126V30.9681H26.9747C27.0527 30.5442 27.0966 30.1133 27.0966 29.6778C27.0966 25.7649 23.9127 22.581 19.9998 22.581C16.0869 22.581 12.9031 25.7649 12.9031 29.6778C12.9031 30.1133 12.9476 30.5442 13.025 30.9681H10.3224V28.2126Z" fill="#6653E8"/>
<path d="M8.38721 2.58105H10.9679V3.87138H8.38721V2.58105Z" fill="#6653E8"/>
<path d="M18.7095 2.58105H21.2901V3.87138H18.7095V2.58105Z" fill="#6653E8"/>
<path d="M29.0322 2.58105H31.6129V3.87138H29.0322V2.58105Z" fill="#6653E8"/>
<path d="M19.3547 17.4193H20.645V6.45161H23.8708V0H16.1289V6.45161H19.3547V17.4193ZM17.4192 1.29032H22.5805V5.16129H17.4192V1.29032Z" fill="#6653E8"/>
<path d="M29.6772 9.03225H23.2256V17.4193H24.5159V10.3226H30.9675V6.45161H34.1933V0H26.4514V6.45161H29.6772V9.03225ZM27.7417 1.29032H32.903V5.16129H27.7417V1.29032Z" fill="#6653E8"/>
<path d="M9.03244 10.3226H15.4841V17.4193H16.7744V9.03225H10.3228V6.45161H13.5486V0H5.80664V6.45161H9.03244V10.3226ZM7.09696 1.29032H12.2582V5.16129H7.09696V1.29032Z" fill="#6653E8"/>
</svg>
