<svg width="50" height="50" viewBox="0 0 50 50" fill="none" xmlns="http://www.w3.org/2000/svg">
<path d="M48.9587 29.166C48.9587 26.6498 47.4609 24.4817 45.3128 23.4917V22.916C45.3128 11.7156 36.2008 2.60352 25.0003 2.60352C13.7999 2.60352 4.68783 11.7156 4.68783 22.916V23.4917C2.53971 24.4817 1.04199 26.6498 1.04199 29.166C1.04199 32.6122 3.84554 35.416 7.29199 35.416H9.37533C9.95058 35.416 10.417 34.9496 10.417 34.3744V23.9577C10.417 23.3824 9.95058 22.916 9.37533 22.916H7.29199C7.1162 22.916 6.94333 22.9281 6.77116 22.9424V22.916C6.77116 12.8645 14.9489 4.68685 25.0003 4.68685C35.0518 4.68685 43.2295 12.8645 43.2295 22.916V22.9424C43.0573 22.9281 42.8845 22.916 42.7087 22.916H40.6253C40.0501 22.916 39.5837 23.3824 39.5837 23.9577V34.3744C39.5837 34.9496 40.0501 35.416 40.6253 35.416H42.7087C42.8845 35.416 43.0573 35.4039 43.2295 35.3896V36.9785C43.2295 40.4247 40.4259 43.2285 36.9795 43.2285H29.167C29.167 42.0798 28.2326 41.1452 27.0837 41.1452H21.8753C20.7263 41.1452 19.792 42.0798 19.792 43.2285V45.3119C19.792 46.4606 20.7263 47.3952 21.8753 47.3952H27.0837C28.2326 47.3952 29.167 46.4606 29.167 45.3119H36.9795C41.5744 45.3119 45.3128 41.5734 45.3128 36.9785V34.8403C47.4609 33.8503 48.9587 31.6822 48.9587 29.166ZM8.33366 24.9994V33.3327H7.29199C4.99453 33.3327 3.12533 31.4635 3.12533 29.166C3.12533 26.8686 4.99453 24.9994 7.29199 24.9994H8.33366ZM21.8753 45.3119V43.2285H27.0837L27.0844 44.2627C27.0844 44.2653 27.0837 44.2676 27.0837 44.2702C27.0837 44.2728 27.0844 44.2752 27.0844 44.2778L27.0852 45.3119H21.8753ZM42.7087 33.3327H41.667V24.9994H42.7087C45.0061 24.9994 46.8753 26.8686 46.8753 29.166C46.8753 31.4635 45.0061 33.3327 42.7087 33.3327ZM25.0003 35.9369C31.3185 35.9369 36.4587 30.7967 36.4587 24.4785C36.4587 18.1604 31.3185 13.0202 25.0003 13.0202C18.6822 13.0202 13.542 18.1604 13.542 24.4785C13.542 26.5227 14.0898 28.5206 15.1304 30.2837L14.0816 35.7403C14.0089 36.1192 14.1513 36.5073 14.4524 36.7491C14.6406 36.9002 14.8715 36.9785 15.1045 36.9785C15.2444 36.9785 15.3847 36.9505 15.5175 36.8933L20.1943 34.8746C21.7105 35.5798 23.3249 35.9369 25.0003 35.9369ZM16.4991 34.2004L17.2524 30.2797C17.3028 30.0175 17.2509 29.7461 17.107 29.5213C16.1375 28.0081 15.6253 26.2643 15.6253 24.4785C15.6253 19.3091 19.8312 15.1035 25.0003 15.1035C30.1695 15.1035 34.3753 19.3091 34.3753 24.4785C34.3753 29.6479 30.1695 33.8535 25.0003 33.8535C23.4943 33.8535 22.0478 33.5 20.7009 32.8029C20.4237 32.6593 20.0962 32.6473 19.8093 32.7717L16.4991 34.2004ZM25.0003 27.6035H19.792C19.2167 27.6035 18.7503 27.1371 18.7503 26.5619C18.7503 25.9866 19.2167 25.5202 19.792 25.5202H25.0003C25.5756 25.5202 26.042 25.9866 26.042 26.5619C26.042 27.1371 25.5756 27.6035 25.0003 27.6035ZM18.7503 22.3952C18.7503 21.8199 19.2167 21.3535 19.792 21.3535H30.2087C30.7839 21.3535 31.2503 21.8199 31.2503 22.3952C31.2503 22.9704 30.7839 23.4369 30.2087 23.4369H19.792C19.2167 23.4369 18.7503 22.9704 18.7503 22.3952Z" fill="#0B59DB"/>
</svg>
