<svg width="50" height="50" viewBox="0 0 50 50" fill="none" xmlns="http://www.w3.org/2000/svg">
<path fill-rule="evenodd" clip-rule="evenodd" d="M33.8379 46.8438H10.235C10.0117 46.8438 9.79881 46.749 9.64949 46.5829C9.50018 46.4168 9.42841 46.1952 9.45194 45.9731C10.1418 39.4862 14.8043 34.1818 20.9636 32.5415C18.4218 31.1212 16.699 28.4042 16.699 25.2975C16.699 20.7297 20.4235 17.0044 24.9994 17.0044C29.5674 17.0044 33.2925 20.7295 33.2925 25.2975C33.2925 28.4041 31.5698 31.1208 29.0308 32.5412C30.844 33.0241 32.5278 33.8251 34.019 34.8805C35.5196 33.4591 37.5437 32.5854 39.765 32.5854C44.3721 32.5854 48.1284 36.3439 48.1284 40.9511C48.1284 45.5582 44.3722 49.3144 39.765 49.3144C37.453 49.3144 35.3548 48.3685 33.8379 46.8438ZM22.499 33.8122C16.6953 34.8532 12.128 39.4532 11.1382 45.269H24.1568L20.1017 41.4567C19.869 41.238 19.7915 40.9004 19.9055 40.602L22.499 33.8122ZM25.8428 45.269H32.6054C31.8404 44.0073 31.3994 42.5291 31.3994 40.9511C31.3994 39.1332 31.9845 37.4476 32.976 36.0727C31.3604 34.957 29.5001 34.1709 27.4922 33.8113L30.0862 40.602C30.2 40.9001 30.1227 41.2374 29.8905 41.4562L25.8428 45.269ZM24.9994 32.0159C28.7001 32.0159 31.7177 28.9981 31.7177 25.2975C31.7177 21.5969 28.7001 18.5792 24.9994 18.5792C21.2921 18.5792 18.2738 21.5967 18.2738 25.2975C18.2738 28.9984 21.2921 32.0159 24.9994 32.0159ZM25.7293 33.6093C25.4875 33.5969 25.2442 33.5907 24.9994 33.5907C24.7521 33.5907 24.5064 33.597 24.2621 33.6096C23.6063 35.3267 21.5649 40.6709 21.5649 40.6709L24.9996 43.8998L28.4268 40.6715L25.7293 33.6093ZM39.765 47.7458C43.5081 47.7458 46.5598 44.6941 46.5598 40.9511C46.5598 37.2078 43.5081 34.154 39.765 34.154C36.0217 34.154 32.968 37.2078 32.968 40.9511C32.968 44.6942 36.0218 47.7458 39.765 47.7458ZM38.7669 40.5062L41.8967 37.3437L41.8982 37.3422C42.6396 36.5969 43.8498 36.5934 44.5951 37.3349C45.34 38.076 45.345 39.2817 44.6039 40.0304L44.6035 40.0308C43.1077 41.5402 41.6232 43.0586 40.1206 44.5613C39.3757 45.3061 38.1663 45.3061 37.4214 44.5613L34.9313 42.0688C34.1867 41.3243 34.1853 40.1193 34.9298 39.3711L34.9313 39.3696C35.6761 38.6248 36.8856 38.6248 37.6304 39.3696L38.7669 40.5062ZM38.2153 42.1728L36.5212 40.4788C36.3888 40.3464 36.1738 40.3461 36.0411 40.4781C35.9087 40.6119 35.9075 40.8267 36.0404 40.9596L38.5306 43.452C38.6632 43.5847 38.8787 43.5847 39.0114 43.452C40.5122 41.9512 41.995 40.4345 43.489 38.9269C43.621 38.7936 43.6215 38.5789 43.4888 38.4469C43.3566 38.3155 43.142 38.3164 43.0105 38.4484L39.3273 42.17C39.1805 42.3183 38.9806 42.402 38.7718 42.4025C38.5631 42.4031 38.3628 42.3204 38.2153 42.1728ZM22.5468 5.13096C22.8964 4.21155 23.9661 1.39753 23.9661 1.39753C24.3241 0.448218 25.6747 0.448218 26.0328 1.39753L27.4519 5.13096C28.436 5.17939 31.4418 5.32714 31.4391 5.32694C32.4622 5.37292 32.8726 6.66155 32.082 7.29175L28.9666 9.79694C29.2252 10.7483 30.0138 13.6489 30.0134 13.6476C30.2862 14.6241 29.198 15.4205 28.3475 14.8688C28.3467 14.8682 28.3458 14.8676 28.3448 14.867L24.9996 12.6777L21.6576 14.8668C21.6567 14.8674 21.6557 14.8681 21.6546 14.8688C20.8071 15.4185 19.7207 14.6261 19.9841 13.6525L19.9843 13.6516C19.9843 13.6516 20.7756 10.7414 21.0323 9.79694C20.2661 9.18087 17.9172 7.29204 17.9194 7.29381C17.1263 6.66155 17.5367 5.37292 18.5565 5.32714L22.5468 5.13096ZM19.8673 6.8394C20.8569 7.63518 22.2534 8.75812 22.253 8.75783C22.6063 9.03547 22.7495 9.46939 22.6347 9.90567C22.6341 9.90773 22.6335 9.90979 22.633 9.91185L21.8281 12.8725C22.8906 12.1767 24.3905 11.1941 24.389 11.1951C24.7684 10.9428 25.2276 10.9423 25.6074 11.1934C25.6074 11.1934 27.1075 12.1752 28.1703 12.8707L27.3659 9.91185C27.3653 9.90979 27.3648 9.90773 27.3642 9.90567C27.2494 9.4693 27.3926 9.03518 27.7452 8.75832L30.1316 6.8394L27.0669 6.68881L27.0653 6.68871C26.6171 6.66567 26.2494 6.40145 26.089 5.97743L24.9994 3.11116L23.9103 5.97626C23.7494 6.40145 23.3817 6.66567 22.9336 6.68871L22.9319 6.68881L19.8673 6.8394ZM38.8174 16.7762C39.1669 15.8567 40.2366 13.0427 40.2366 13.0427C40.5947 12.0934 41.9453 12.0934 42.3033 13.0427L43.7225 16.7762C44.7066 16.8245 47.7124 16.9722 47.7097 16.9721C48.7328 17.0181 49.1432 18.3067 48.3526 18.9368L45.2371 21.4421C45.4958 22.3935 46.2843 25.2941 46.284 25.2927C46.5567 26.2693 45.4686 27.0656 44.6181 26.5139C44.6172 26.5133 44.6163 26.5127 44.6154 26.5121L41.2701 24.3228L37.9282 26.512C37.9271 26.5126 37.9262 26.5133 37.9252 26.5139C37.0777 27.0637 35.9913 26.2713 36.2547 25.2977L36.2549 25.2968C36.2549 25.2968 37.0462 22.3866 37.3028 21.4421C36.5367 20.826 34.1878 18.9372 34.19 18.939C33.3968 18.3067 33.8072 17.0181 34.8269 16.9723L38.8174 16.7762ZM36.1379 18.4846C37.1275 19.2804 38.524 20.4033 38.5236 20.403C38.8768 20.6806 39.0201 21.1146 38.9053 21.5509C38.9047 21.5529 38.9041 21.555 38.9036 21.557L38.0987 24.5177C39.1612 23.8217 40.6611 22.8392 40.6596 22.8402C41.039 22.588 41.4982 22.5874 41.878 22.8386C41.878 22.8386 43.3781 23.8204 44.4408 24.5159L43.6365 21.557C43.6359 21.555 43.6353 21.5529 43.6348 21.5509C43.5199 21.1145 43.6632 20.6804 44.0158 20.4035L46.4021 18.4846L43.3375 18.3339L43.3359 18.3338C42.8877 18.3109 42.52 18.0466 42.3596 17.6226L41.27 14.7564L40.1809 17.6215C40.02 18.0466 39.6523 18.3109 39.2042 18.3338L39.2025 18.3339L36.1379 18.4846ZM6.27626 16.7762C6.62587 15.8567 7.69547 13.0427 7.69547 13.0427C8.05351 12.0934 9.4041 12.0934 9.76224 13.0427L11.1814 16.7762C12.1654 16.8245 15.1714 16.9722 15.1685 16.9721C16.1917 17.0181 16.602 18.3067 15.8115 18.9368L12.696 21.4421C12.9546 22.3935 13.7432 25.2941 13.7428 25.2927C14.0156 26.2693 12.9274 27.0656 12.0769 26.5139C12.0761 26.5133 12.0752 26.5127 12.0743 26.5121L8.729 24.3228L5.38704 26.512C5.38606 26.5126 5.38508 26.5133 5.3841 26.5139C4.53655 27.0637 3.45008 26.2713 3.71351 25.2977L3.71381 25.2968C3.71381 25.2968 4.50498 22.3866 4.76175 21.4421C3.99547 20.826 1.64665 18.9372 1.64881 18.939C0.855669 18.3067 1.26606 17.0181 2.28587 16.9723L6.27626 16.7762ZM3.59675 18.4846C4.58636 19.2804 5.98283 20.4033 5.98243 20.403C6.33577 20.6806 6.47891 21.1146 6.3641 21.5509C6.36351 21.5529 6.36302 21.555 6.36243 21.557L5.55753 24.5177C6.61998 23.8217 8.11988 22.8392 8.11841 22.8402C8.49783 22.588 8.95714 22.5874 9.33685 22.8386C9.33685 22.8386 10.8369 23.8204 11.8997 24.5159L11.0953 21.557C11.0947 21.555 11.0942 21.5529 11.0936 21.5509C10.9788 21.1145 11.122 20.6804 11.4746 20.4035L13.861 18.4846L10.7964 18.3339L10.7947 18.3338C10.3466 18.3109 9.97881 18.0466 9.81841 17.6226L8.72881 14.7564L7.63969 17.6215C7.47881 18.0466 7.11116 18.3109 6.66302 18.3338L6.66136 18.3339L3.59675 18.4846Z" fill="#0B59DB"/>
</svg>
